<?xml version="1.0" encoding="UTF-8"?>
<!DOCTYPE svg PUBLIC "-//W3C//DTD SVG 1.1//EN" "http://www.w3.org/Graphics/SVG/1.1/DTD/svg11.dtd">
<!-- Creator: CorelDRAW 2021 (64 Bit) -->
<svg xmlns="http://www.w3.org/2000/svg" xml:space="preserve" width="175px" height="194px" version="1.1" style="shape-rendering:geometricPrecision; text-rendering:geometricPrecision; image-rendering:optimizeQuality; fill-rule:evenodd; clip-rule:evenodd"
viewBox="0 0 85.2 94.07"
 xmlns:xlink="http://www.w3.org/1999/xlink"
 xmlns:xodm="http://www.corel.com/coreldraw/odm/2003">
 <defs>
  <style type="text/css">
   <![CDATA[
    .fil0 {fill:white}
   ]]>
  </style>
 </defs>
 <g id="Camada_x0020_1">
  <metadata id="CorelCorpID_0Corel-Layer"/>
  <path class="fil0" d="M0.35 69.74c0.06,0.73 1.13,1.91 1.81,2.35 1.41,0.93 3.78,2.08 5.32,3.01 1.99,1.2 4.58,2.51 6.66,3.75l9.38 5.26c0.91,0.47 1.76,1 2.66,1.5l13.39 7.5c0.47,0.24 0.84,0.5 1.39,0.7 1.1,0.38 2.5,0.34 3.6,-0.14 0.75,-0.32 6.45,-3.55 7.34,-4.08l3.4 -1.9c0.44,-0.27 0.9,-0.52 1.33,-0.76 0.9,-0.48 1.76,-0.99 2.67,-1.49l5.37 -3.03c3.61,-2 7.11,-4 10.72,-6 0.46,-0.25 0.9,-0.51 1.33,-0.76 0.22,-0.12 0.42,-0.23 0.65,-0.36 0.26,-0.14 0.44,-0.25 0.69,-0.38 0.21,-0.11 0.42,-0.23 0.64,-0.36l2.67 -1.5c0.25,-0.13 0.45,-0.24 0.69,-0.38 0.42,-0.25 0.94,-0.5 1.29,-0.8 0.56,-0.48 1.61,-1.66 1.63,-2.6 0.06,-0.1 -0.01,0.07 0.06,-0.14l0.09 -0.58c0.13,-0.91 0.05,-26.27 0.05,-27.16 0,-4.68 0,-9.36 0,-14.03 0,-3 -0.25,-3.64 -1.8,-5.19 -0.39,-0.41 -1.61,-1.08 -2.14,-1.35l-12.42 -6.93c-0.39,-0.23 -0.72,-0.4 -1.13,-0.62 -1.67,-0.93 -4.07,-2.36 -5.59,-3.13l-2.29 -1.28c-0.4,-0.2 -0.72,-0.41 -1.12,-0.63l-9 -5.03c-1.33,-0.79 -3.17,-1.7 -4.49,-2.5 -0.37,-0.22 -0.74,-0.39 -1.23,-0.51 -1.62,-0.4 -2.96,-0.15 -4.33,0.64l-11.24 6.29c-0.2,0.11 -0.35,0.19 -0.55,0.31 -0.21,0.13 -0.37,0.2 -0.57,0.31l-2.79 1.58c-2.94,1.74 -6.7,3.64 -9.61,5.37 -0.75,0.45 -1.49,0.81 -2.23,1.26 -1.11,0.67 -2.76,1.49 -3.92,2.19 -1.5,0.9 -3.54,1.92 -5.08,2.85 -0.66,0.39 -0.91,0.45 -1.65,0.96 -0.87,0.61 -1.5,1.55 -1.8,2.57 -0.26,0.88 -0.19,2.22 -0.19,3.37l0 38.63c0,0.87 -0.08,2.19 0.24,3.04 0.01,0.02 0.04,0.08 0.05,0.09 0,0.02 0.02,0.04 0.02,0.05 0,0.01 0.02,0.03 0.03,0.04zm69.11 -20.47l4.48 0.02 0.01 4.46 4.47 0 0.01 -4.47 4.47 -0.01 0 -4.47 -4.48 -0.02 0.01 -4.46 -4.49 0 -0.01 4.48 -4.47 0 0 4.47zm-15.67 0l4.48 0.03 0 4.45 4.48 0c0,-0.82 -0.04,-3.89 0.02,-4.48 0.77,0 3.95,0.1 4.45,-0.04l0 -4.39c-0.5,-0.14 -3.68,-0.04 -4.47,-0.04l0 -4.48 -4.48 0 -0.01 4.48 -4.47 0 0 4.47zm-38.65 12.88c0.67,1.15 1.32,2.27 2.08,3.28 0.38,0.5 1.65,2.15 2.1,2.6 0.16,0.16 0.23,0.21 0.37,0.37 5.28,5.92 13.75,9.86 22.57,9.98 6.56,0.09 12.42,-1.94 16.92,-4.75 3.4,-2.13 6.17,-4.73 8.47,-7.78 0.41,-0.53 0.76,-1.03 1.12,-1.57 0.19,-0.3 0.89,-1.52 1.04,-1.66 -0.16,-0.27 -0.59,-0.43 -0.85,-0.57l-12.84 -7.08c-2.35,3.97 -7.17,7.92 -14,7.73 -3.45,-0.09 -6.82,-1.43 -9.07,-3.23 -0.26,-0.21 -0.51,-0.39 -0.73,-0.61 -0.5,-0.49 -0.91,-0.77 -1.36,-1.33 -0.21,-0.26 -0.39,-0.46 -0.61,-0.73 -0.44,-0.53 -1.39,-1.87 -1.6,-2.46 -0.88,-1.3 -1.6,-4.06 -1.76,-5.87 -0.3,-3.51 0.46,-6.46 2.07,-9.33 0.56,-0.99 1.65,-2.43 2.51,-3.26l0.99 -0.89c1.04,-0.78 1.11,-0.86 2.27,-1.56 6.18,-3.73 14.83,-2.25 19.49,3.22 0.41,0.48 1.36,1.57 1.61,2.19 0.42,-0.12 6.25,-3.53 6.85,-3.86 0.69,-0.38 6.3,-3.67 6.78,-3.84 -0.12,-0.43 -1.25,-2.02 -1.53,-2.42 -1.11,-1.51 -1.47,-1.91 -2.65,-3.19 -0.35,-0.37 -0.56,-0.66 -0.96,-0.99l-1.52 -1.37c-0.19,-0.14 -0.33,-0.28 -0.51,-0.43 -2.68,-2.16 -6.01,-4.2 -10.02,-5.49 -8.74,-2.82 -18.13,-1.62 -25.31,2.56 -1.61,0.95 -4.23,2.72 -5.62,4.12 -0.34,0.34 -0.68,0.59 -1.02,0.93l-2.27 2.56c-0.96,1.19 -2,2.73 -2.75,4.04 -4.36,7.61 -5.36,16.74 -2.61,25.3 0.75,2.35 1.31,3.33 2.35,5.39z"/>
 </g>
</svg>
