<svg width="42" height="42" viewBox="0 0 42 42" fill="none" xmlns="http://www.w3.org/2000/svg">
<path fill-rule="evenodd" clip-rule="evenodd" d="M4.32078 17.4457C4.4427 17.3235 4.58753 17.2265 4.74699 17.1604C4.90644 17.0942 5.07739 17.0602 5.25003 17.0602C5.42267 17.0602 5.59361 17.0942 5.75307 17.1604C5.91252 17.2265 6.05736 17.3235 6.17928 17.4457L21 32.2691L35.8208 17.4457C36.0672 17.1993 36.4015 17.0608 36.75 17.0608C37.0986 17.0608 37.4328 17.1993 37.6793 17.4457C37.9257 17.6922 38.0642 18.0265 38.0642 18.375C38.0642 18.7235 37.9257 19.0578 37.6793 19.3042L21.9293 35.0542C21.8074 35.1765 21.6625 35.2735 21.5031 35.3396C21.3436 35.4058 21.1727 35.4398 21 35.4398C20.8274 35.4398 20.6564 35.4058 20.497 35.3396C20.3375 35.2735 20.1927 35.1765 20.0708 35.0542L4.32078 19.3042C4.19855 19.1823 4.10157 19.0375 4.03541 18.878C3.96924 18.7186 3.93518 18.5476 3.93518 18.375C3.93518 18.2024 3.96924 18.0314 4.03541 17.872C4.10157 17.7125 4.19855 17.5677 4.32078 17.4457V17.4457Z" fill="white"/>
<path fill-rule="evenodd" clip-rule="evenodd" d="M4.32078 6.94575C4.4427 6.82352 4.58753 6.72655 4.74699 6.66038C4.90644 6.59421 5.07739 6.56015 5.25003 6.56015C5.42267 6.56015 5.59361 6.59421 5.75307 6.66038C5.91252 6.72655 6.05736 6.82352 6.17928 6.94575L21 21.7691L35.8208 6.94575C35.9428 6.82372 36.0877 6.72692 36.2471 6.66088C36.4066 6.59483 36.5774 6.56084 36.75 6.56084C36.9226 6.56084 37.0935 6.59483 37.2529 6.66088C37.4124 6.72692 37.5572 6.82372 37.6793 6.94575C37.8013 7.06778 37.8981 7.21265 37.9642 7.37209C38.0302 7.53153 38.0642 7.70242 38.0642 7.875C38.0642 8.04758 38.0302 8.21847 37.9642 8.37791C37.8981 8.53735 37.8013 8.68222 37.6793 8.80425L21.9293 24.5542C21.8074 24.6765 21.6625 24.7735 21.5031 24.8396C21.3436 24.9058 21.1727 24.9398 21 24.9398C20.8274 24.9398 20.6564 24.9058 20.497 24.8396C20.3375 24.7735 20.1927 24.6765 20.0708 24.5542L4.32078 8.80425C4.19855 8.68233 4.10157 8.53749 4.03541 8.37804C3.96924 8.21858 3.93518 8.04764 3.93518 7.875C3.93518 7.70236 3.96924 7.53142 4.03541 7.37196C4.10157 7.21251 4.19855 7.06767 4.32078 6.94575V6.94575Z" fill="white"/>
</svg>
