<svg xmlns="http://www.w3.org/2000/svg" height="800" width="1200" xml:space="preserve" y="0" x="0" id="Layer_1" version="1.1" viewBox="-14.799165 -26.3173 128.25943 157.9038"><style id="style3" type="text/css"/><g transform="matrix(.0508 0 0 .04623 -.009 -.3056)" id="g5"><path id="path7" transform="matrix(25.76804 0 0 28.31706 -39.329 -60.8085)" d="M6.0195 62.7637c-.8382 0-1.6061.2207-2.3047.662-.6985.4415-1.233 1.0865-1.6132 1.9376-.3765.851-.5684 1.8476-.5684 2.9883 0 1.0453.1721 2.0228.5059 2.9375.3337.911.8186 1.6076 1.4629 2.0879.6442.4838 1.4735.7226 2.498.7226.9896 0 1.8287-.3124 2.5117-.9375.687-.625 1.16-1.5345 1.4238-2.7246l-1.2617-.3672c-.1746.9252-.5032 1.619-.996 2.0781-.4852.4662-1.079.7012-1.7852.7012-.5783 0-1.1146-.1695-1.6114-.5156-.4967-.3461-.8609-.8649-1.0976-1.5606-.2367-.6957-.3535-1.5071-.3535-2.4394 0-.7204.1009-1.424.2988-2.1055.198-.678.5442-1.2224 1.0332-1.625C4.655 64.201 5.2626 64 5.9921 64c.6365 0 1.165.185 1.584.5488.4192.3638.7379.9457.959 1.7403l1.2383-.336c-.2522-1.01-.7073-1.7936-1.3554-2.3515-.6442-.558-1.4477-.838-2.3985-.838zm40.8809.1875V73.914h1.918v-4.58h.3906c.4463 0 .769.0418.9746.123.2018.0813.3957.2362.5781.4551.1824.2225.5247.7564 1.0176 1.6074l1.377 2.3946h2.2968l-1.1601-2.1407c-.458-.851-.8182-1.4438-1.0899-1.7793-.2677-.3354-.6101-.639-1.0254-.918.8344-.1412 1.4598-.4768 1.879-1.0136.419-.5332.6288-1.2162.6288-2.039 0-.6463-.1404-1.2216-.416-1.7266-.2755-.5015-.6436-.851-1.1054-1.0489-.458-.1977-1.2-.2968-2.2168-.2968zm12.3223 0L55.5273 73.916h2.0372l.791-2.496h3.8203l.8222 2.496h2.0762l-3.8144-10.9648zm-28.6914.0039v10.961h1.1718V62.955zm6.7714 0v10.9687h3.6094c.7063 0 1.2723-.077 1.6953-.2324.5627-.2084 1.014-.5026 1.3477-.877.4424-.4944.7789-1.1393 1.0156-1.9375.194-.6533.291-1.4299.291-2.334 0-1.0276-.1029-1.8945-.3086-2.5937-.2095-.7027-.5085-1.2916-.9082-1.7754-.3958-.4838-.8786-.8226-1.4336-1.0097-.4152-.1378-1.0169-.209-1.8086-.209zm27.1309 0l2.2402 10.961h2.1094l1.8906-8.1954 1.879 8.1953h2.0566l2.293-10.961h-1.9317l-1.4531 7.6563-1.6602-7.6562h-2.289L67.83 70.4844l-1.414-7.5293zm-25.205 1.8476h.8573c.78 0 1.3045.0384 1.5723.1055.357.0883.652.2614.8848.5156.2328.2578.4149.607.543 1.0625.128.4556.1933 1.1017.1933 1.9492 0 .8476-.0614 1.519-.1934 2.0098-.128.4909-.2962.8412-.502 1.0566-.2017.212-.461.3668-.7714.4551-.2367.0707-.6207.1055-1.1563.1055h-1.4277v-7.2598zm9.5995.004h1.502c.7761 0 1.2432.0123 1.4023.037.3105.0565.55.2018.7207.4278.1708.2295.2559.5257.2559.8965 0 .3284-.0614.6052-.1934.8242-.128.2225-.31.3765-.539.4648-.2329.0883-.8069.1348-1.7266.1348h-1.4219zm11.3985.705l1.3242 4.0586h-2.6094zm-38.9512.2871c-.2755 0-.523.0914-.752.2715-.229.1801-.4783.5502-.746 1.1152v-1.2187h-1.0508v7.9472h1.1796v-4.1542c0-.5686.0615-1.0897.1934-1.5665.0854-.3143.2298-.5597.4316-.7363.2018-.1766.4256-.2637.6817-.2637.2833 0 .5663.0918.8496.2754l.416-1.2441c-.4075-.286-.8073-.4258-1.2031-.4258zm4.7148 0c-.9508 0-1.7226.3674-2.3203 1.1055-.5937.7345-.8926 1.7721-.8926 3.1035 0 1.289.295 2.2925.8848 3.0059.5899.7168 1.3894 1.0722 2.3945 1.0722.8034 0 1.4585-.225 1.9707-.6699.5162-.445.8665-1.078 1.0567-1.8867l-1.211-.1836c-.1785.572-.4199.9899-.7187 1.2441-.3027.2614-.6669.3907-1.0938.3907-.5743 0-1.0552-.2327-1.4394-.6954-.388-.4626-.6018-1.1332-.6445-2.002h5.1347c.004-.1588.0078-.2796.0078-.3573 0-1.3102-.2909-2.323-.873-3.047-.586-.7203-1.3361-1.08-2.2559-1.08zm-11.8437.002c-.8538 0-1.58.2947-2.17.8809-.714.7098-1.0663 1.7926-1.0663 3.2617 0 1.3384.2949 2.3632.8925 3.08.5938.7134 1.3736 1.0665 2.3399 1.0665.6015 0 1.1557-.1595 1.664-.4844.5123-.3249.9022-.7806 1.166-1.3633.2678-.5862.3985-1.3876.3985-2.4082 0-1.2607-.2989-2.2456-.9004-2.959-.6015-.7168-1.3773-1.0742-2.3242-1.0742zm11.8515 1.1035c.59 0 1.0747.2563 1.4434.7754.2445.3355.393.8384.4434 1.5059H24.043c.0427-.6922.2445-1.247.6054-1.6602.3648-.4132.8141-.621 1.3496-.621zm-11.8554.0176c.5782 0 1.0592.2528 1.4472.7578.3881.5015.582 1.2429.582 2.2246 0 1.0383-.1939 1.8118-.578 2.3203-.3881.505-.8691.7598-1.4512.7598-.586 0-1.071-.2548-1.459-.7598-.3842-.5014-.5781-1.2602-.5781-2.2773 0-1.0135.19-1.772.578-2.2734.3882-.5015.873-.752 1.459-.752z" fill="#979797"/><path id="path25" d="M937.3717 2077.0194c-11.6 0-22.0111 3.302-30.9111 9.802-9 6.5-15.769 16.4552-20.569 29.9552-4.7 13.5-7.1127 28.0174-7.1127 43.5174 0 15.7 2.3896 29.888 7.1896 42.5879 4.8 12.6999 11.8994 22.4103 21.2994 29.1101 9.4 6.8001 19.911 10.0978 31.411 10.0978 8.5 0 16.8135-1.9685 24.9135-6.1685 8.1-4.1999 16.0063-10.4167 23.6063-18.7167v-59.2343H937.564v18.7166h34.3329V2206.6c-3.3 4.0999-8.0944 7.8074-14.4944 11.4074-6.3 3.5001-12.9463 5.2812-19.6463 5.2812-7.7 0-14.9762-2.4134-21.8762-7.0135-6.9-4.7-12.0862-11.7784-15.6862-21.3784-3.6-9.6001-5.421-21.4857-5.421-35.7858 0-11.5999 1.4984-22.2943 4.4982-32.1943 1.8-5.7 4.1818-11.0438 7.3818-15.8438 3.2-4.8 7.3336-8.7187 12.5336-11.6187 5.2-2.9 11.2776-4.3517 18.3776-4.3517 5.9 0 11.3091 1.4251 16.1091 4.2249 4.9 2.7001 8.6265 6.5118 11.2265 11.1118 2.5 4.7 4.6975 11.0814 6.4975 19.1815l13.9946-5.1968c-2.1001-10.8-5.0197-19.5372-8.9197-26.2372-3.9-6.6-9.3091-11.7902-16.1091-15.5902-6.9-3.7-14.4912-5.577-22.9912-5.577zm686.4277 0c-7.9 0-15.0917 1.8926-21.4917 5.4925-6.5 3.7-11.2867 8.9704-14.6867 15.9705-3.3 7-5.0365 14.5037-5.0365 22.6037 0 7.3 1.3139 14.0419 4.1138 19.9419 2.8 5.9 6.8952 10.8719 12.4952 14.8721 4.3 3.1998 11.8066 6.5132 22.6067 10.0132 10.7999 3.6 17.7765 6.174 20.8765 7.7739 5 2.6002 8.5113 5.7217 10.6113 9.4218 2.1001 3.7999 3.2295 8.0975 3.2295 13.0975 0 4.8999-1.1448 9.5313-3.3448 13.7311-2.2001 4.2001-5.6116 7.4866-10.1115 9.8865-4.6 2.4002-9.7863 3.5913-15.6863 3.5913-6.7 0-12.6546-1.6159-17.9546-4.8166-5.3-3.2-9.3416-7.4059-11.8416-12.5058-2.5-5.2001-4.0674-11.773-4.7674-19.773l-14.6097 1.7739c.201 10.7 2.2744 20.1876 6.5744 28.6876 4 8.5001 9.6396 14.8123 16.8396 19.0126 7.1 4.1998 15.9667 6.2951 26.5667 6.2951 8.4 0 15.9067-1.9685 22.6067-6.1686 6.7-4.1998 11.7787-10.0335 15.3787-17.5335 3.5-7.5001 5.344-15.4981 5.344-23.9981 0-8.4999-1.7212-16.0613-4.9211-22.5615-3.3-6.5-8.3096-11.924-15.1096-16.224-4.6-2.9-13.2746-6.3243-25.8746-10.2244-12.6-3.9-20.4141-7.7074-23.4141-11.4075-3.1-3.7999-4.6136-8.4537-4.6136-14.1537 0-6.7 2.0821-12.3267 6.3822-17.0267 4.3-4.7 11.1305-6.9712 20.5305-6.9712 9 0 15.7768 2.4894 20.3768 7.6895 4.6 5.0999 7.3122 12.6727 8.1122 22.7727l14.9174-1.6056c-.3-9.3993-2.2055-17.8225-5.8055-25.2225-3.6-7.4-8.7018-12.931-15.3018-16.731-6.7-3.8-14.2911-5.7037-22.9911-5.7037zm-378.9309 2.6617v159.8345h14.4176v-63.2057c0-9.1002.7838-16.1942 2.3837-21.2941 1.5999-5.2001 4.3353-9.2948 8.0353-12.2947 3.8-3 7.757-4.5208 11.957-4.5208 5.5999 0 10.0487 2.1754 13.1487 6.6755 3.0001 4.5001 4.5752 11.6207 4.5752 21.4206v73.2192h14.3791v-73.3459c0-11.2999-.9605-19.9568-2.9604-25.8569-2.0001-6.003-5.3193-10.63-9.9193-14.03-4.6-3.4-10.1014-5.07-16.3014-5.07-10.2 0-18.5979 5.2705-25.2979 15.9705v-57.5022zm91.0034 0v22.3502h14.456v-22.3502zm445.7897 0v22.3502h14.4175v-22.3502zm54.7481 3.549l-14.3791 11.7455v28.5187h-10.5728v15.21h10.5728v66.6703c0 11.8002.4918 19.5375 1.6917 23.2374 1.2 3.7002 3.1745 6.6149 6.0746 8.9148 2.9 2.3001 6.9493 3.38 12.1492 3.38 3.1 0 6.7651-.5322 10.7651-1.7327l-1.9608-17.2379c-2.6.4997-4.7515.7333-6.1515.6338-2.1001 0-3.7827-.4521-4.8827-1.352-1.2-.8999-1.9991-2.2447-2.4991-3.8448-.6-1.6008-.8074-5.1738-.8074-10.7736v-67.8112h14.4559v-15.21h-14.4559v-40.3487zm-797.0388 37.9827c-3.3 0-6.3888 1.2869-9.1888 3.887-2.8 2.6001-5.9272 7.9817-9.2272 16.1817v-17.7027h-12.8797v115.9368h14.4176v-60.5017c0-8.3002.7838-15.8995 2.3837-22.8996.9999-4.6001 2.8056-8.1315 5.3056-10.7315 2.5-2.6001 5.2814-3.887 8.3814-3.887 3.5 0 7.0344 1.3139 10.5344 4.0138l5.0749-18.083c-5-4.103-9.9019-6.2138-14.8019-6.2138zm152.0952 0c-5.5 0-10.1715 1.4515-14.0715 4.3518-3.9 2.8999-7.4344 7.3242-10.5344 13.2242v-15.21h-13.0719v160.2116h14.3022v-56.488c2.5 4.1999 5.581 7.5935 9.381 10.3936 3.8 2.6998 8.0796 4.0981 12.8796 4.0981 6.5 0 12.8236-2.4781 18.7236-7.4781 5.9999-5 10.5101-12.3588 13.6101-21.7588 3.1-9.5001 4.7289-20.0565 4.7289-31.8565 0-11.0001-1.4291-21.1199-4.2291-30.4199-2.8-9.3-6.9952-16.4053-12.4952-21.5053-5.6-5.1-11.9233-7.5627-19.2233-7.5627zm215.3016 0c-7.3 0-13.9845 2.2714-20.1846 6.9713-6.2999 4.6-10.8792 11.6982-13.8792 20.9982-3.1 9.3999-4.6136 20.3282-4.6136 32.8282 0 19.3001 3.5113 34.1045 10.6113 44.4046s16.3892 15.4634 27.9892 15.4634c9.2 0 16.9756-3.6539 23.3756-11.1539 6.3-7.5 10.2416-17.8537 11.8416-31.0537l-14.1484-2.704c-1 9.8001-3.3742 17.1433-7.0742 21.8433-3.8 4.7999-8.5253 7.0979-14.2253 7.0979-7 0-12.7088-3.6048-17.1088-10.6047-4.3-7.0001-6.459-18.3-6.459-33.7999 0-15.3001 2.2667-26.4888 6.7666-33.5886 4.5-7.1001 10.4239-10.6049 17.7239-10.6049 4.8 0 8.8645 2.0151 12.2645 5.915 3.4 3.9001 5.8511 9.6914 7.1511 17.4915l13.9177-2.9152c-1.6999-11.7-5.4418-20.6823-11.3418-27.0823-5.8-6.3-13.4066-9.5062-22.6066-9.5062zm75.3171 0c-4.4 0-8.4799.6814-12.3799 2.2815-3.8 1.5999-6.9118 3.4615-9.1118 5.6615-3 2.9-5.4127 6.585-7.1127 10.985-1.7 4.4-2.6143 9.0382-2.6143 14.2381 0 5.7001 1.1295 10.9058 3.2295 15.5058 2.1001 4.7 5.0887 8.2851 9.1887 10.985 4.1 2.7001 11.4147 5.8218 21.9147 9.4218 7.8 2.8 12.6866 4.8754 14.6866 6.6754 2.9 2.5002 4.2676 5.9935 4.2676 10.3935 0 4.9-1.5673 9.3707-4.7674 12.9707-3.3 3.6999-8.202 5.4502-14.802 5.4502-6.5 0-11.6018-2.068-15.3018-6.1684-3.7-4.2-5.8897-10.114-6.6897-17.914l-14.1868 3.0842c1.5999 12.3002 5.2879 21.5005 11.1879 27.8006 5.7001 6.1999 14.1827 9.2948 25.1826 9.2948 6.6001 0 12.6162-1.4904 17.9162-4.6896 5.3-3.2 9.3107-7.5932 12.1107-13.3932 2.8-5.8 4.1907-11.9209 4.1907-18.4211 0-6.6999-1.1986-12.3153-3.4986-16.8154-2.3001-4.4999-5.5348-7.9666-9.5348-10.2668-4.1-2.4-11.161-5.3837-21.261-9.0837-7.1-2.6001-11.2875-4.3277-12.6875-5.0277-2.5-1.3996-4.3363-3.0968-5.5363-5.1968-1.1-2.1005-1.6531-4.3444-1.6531-6.8444 0-3.9 1.3523-7.478 4.1523-10.478 2.7999-3 7.5099-4.4785 14.1099-4.4785 5.6 0 9.9334 1.7124 13.0334 5.1122 3 3.3999 4.8979 8.0692 5.4979 14.0693l14.0715-2.704c-.9002-7.5001-2.4826-13.4562-4.8827-17.9563-2.4002-4.3999-6.2266-8.0047-11.2266-10.6047-5-2.6001-10.7932-3.887-17.4932-3.887zm417.5313 0c-11.7 0-21.2658 5.3972-28.5659 16.0972-7.2999 10.7001-11.0342 25.7652-11.0342 45.1652 0 18.8001 3.6189 33.4131 10.9189 43.8131 7.3 10.4 17.0886 15.5902 29.4886 15.5902 9.9 0 17.9983-3.2597 24.2983-9.7597 6.3-6.5 10.695-15.7046 12.995-27.5046l-14.8789-2.704c-2.2 8.3999-5.135 14.3675-9.035 18.1674-3.7 3.8001-8.1947 5.7037-13.4948 5.7037-7.1 0-12.9853-3.3977-17.6854-10.0976-4.6999-6.7001-7.4201-16.4102-7.9201-29.1103h63.3218c.1004-2.3.077-3.9968.077-5.1967 0-19.0999-3.565-33.8624-10.765-44.3624-7.0999-10.6-16.42-15.8015-27.72-15.8015zm-800.8451.1276c-7.3 0-13.7618 1.3559-19.2618 4.056-5.6 2.8-9.9027 6.6033-12.8027 11.7033-2.9 4.9999-5.0437 11.6997-6.3437 19.8997l14.1484 2.704c1.5999-8.2 3.9895-13.9958 7.1895-17.1957 3.2-3.3001 8.1942-4.9433 14.9942-4.9433 7.2 0 12.6783 2.2332 16.3783 6.6333 2.7 3.2 4.1138 8.7732 4.1138 16.7731 0 .7009.024 2.4546-.077 5.1545-5.5 2.6002-14.1208 4.7755-25.7208 6.6756-5.7.8999-10.0028 1.8734-12.8028 2.873-3.9 1.3996-7.319 3.622-10.419 6.4219-3.0001 2.8-5.4818 6.4963-7.3818 11.1962-1.8 4.7-2.7682 9.9057-2.7682 15.5058 0 9.6001 2.4972 17.5022 7.4971 23.7022 5 6.1999 12.1918 9.295 21.4918 9.295 5.7 0 10.9784-1.1595 15.8784-3.7603 4.9001-2.5 10.1172-6.9397 15.4172-13.1397.4 5.6001 1.2529 10.4184 2.6528 14.6185h15.1096c-1.7-4.5001-2.8603-9.0848-3.4602-13.9847-.6002-4.8001-.9227-16.3182-.9227-34.5183v-25.9837c0-8.6-.1909-14.7406-.6921-18.0406-.9-5.4001-2.3982-9.8933-4.4983-13.3933-2.1-3.6-5.4961-6.488-9.9961-8.7879-4.5-2.3-10.424-3.4646-17.7239-3.4646zm237.1009 2.2393v115.807h14.456v-115.807zm445.7897 0v115.807h14.4175v-115.807zm-91.4648.212v71.5712c.0001 8.3001.2841 14.4365.8843 18.3365.8002 5.7 2.3214 10.5339 4.4214 14.5343 2.1001 3.8996 5.3885 7.2019 9.6885 9.8017 4.3 2.6001 8.9947 3.8453 13.9946 3.8446 11.3 0 20.3127-6.5884 26.9127-19.6883v17.4488h12.7643V2123.791h-14.379v61.8963c0 9.9001-.7069 17.4458-2.3068 22.6459-1.6 5.2001-4.197 9.2524-7.9969 12.2525-3.8001 2.9997-7.8108 4.4785-12.1108 4.4785-4.3 0-7.9035-1.4515-10.8035-4.3517-3-2.9002-4.9055-6.9257-5.8054-12.126-.5998-3.6-.8843-10.4599-.8843-20.6601v-64.1354h-14.3791zm-500.1148 12.8017c6.2 0 11.4785 3.685 15.8785 10.9849 4.5 7.2999 6.6897 18.3396 6.6897 33.0393 0 15.5002-2.1667 26.7804-6.7666 34.1803-4.6 7.3001-9.9783 10.9849-16.3783 10.9849-6.2 0-11.5938-3.547-15.9939-10.6468-4.3999-7.1001-6.6512-18.1127-6.6512-32.9128 0-14.8 2.4357-26.1267 7.0357-33.9267 4.7-7.7999 10.0861-11.7031 16.1861-11.7031zm709.7263.7182c7.3 0 13.2393 3.7808 17.8393 11.2806 2.9 4.9003 4.7826 12.1855 5.3826 21.8855h-47.328c.5-10.1 2.8971-18.1668 7.4972-24.1668 4.5-6 10.0089-8.9993 16.6089-8.9993zm-782.6213 44.0666l-.077 7.1825c0 8.6-.7452 15.1194-2.3452 19.5194-2.0001 5.7-5.1964 10.22-9.4964 13.5199-4.3 3.3002-9.3019 4.9012-14.8019 4.9012-5.6 0-9.8643-1.6959-12.7643-5.1969-3-3.5-4.383-7.7706-4.383-12.9707 0-3.3999.6608-6.495 1.9608-9.2948 1.4-2.7001 3.2286-4.9375 5.7286-6.3375 2.4-1.3996 6.672-2.6869 12.572-3.8871 10.5-2.0009 18.4063-4.536 23.6063-7.436z" fill="#979797"/><path id="polygon57" clip-rule="evenodd" fill="#61a706" fill-rule="evenodd" d="M1331.9 1366.9l-221.6 2.2 32.9 131.6h158z"/><path id="path59" transform="matrix(25.76804 0 0 28.31706 -39.329 -60.8085)" d="M45.7402 2.3809c-.8887.0388-.6994-.0151-1.6191.2109C21.5738 8.1185 35.879 38.0866 46.3105 47l.873.6543C39.977 36.4102 28.0246 9.3272 45.7403 2.3809zm6.6582 0c17.7158 6.9463 5.7672 34.0293-1.4433 45.2734L51.828 47c10.4317-8.9134 24.737-38.8815 2.1896-44.4082-.9198-.226-.7305-.172-1.6192-.211zm-3.5136.3125c-1.7298.1017-3.2717 1.708-4.041 3.0566-5.0257 8.811-1.8167 24.007.5312 33.0156l.791 3.0899c.52 1.7904 1.111 3.3794 1.6465 5.3535l.2324.6562.1485.293 1.4785.0078.1738-.0781.2129-.459c.912-2.1365 3.308-11.2548 3.8047-13.582 1.3505-6.3142 2.362-12.7489 1.8691-19.1973-.1863-2.4367-.6901-5.1597-1.6914-7.4375-.7645-1.748-1.9136-3.7504-3.9355-4.5273-.4119-.1583-.8216-.215-1.2207-.1914zM36.8457 4.7598c-4.4357 1.8787-7.8427 5.9579-8.5762 10.3828l-.1718 1.8789.0195 1.5117.2324 1.666.129.795c1.7463 8.7473 9.7335 20.2153 16.7616 26.293-9.7174-11.7986-24.3833-30.464-8.3945-42.5274zm24.4492 0c15.9888 12.0634 1.323 30.7288-8.3984 42.5273 7.028-6.0776 15.0134-17.5456 16.7597-26.293l.129-.7949.2324-1.666.0234-1.5117-.1699-1.879c-.7335-4.4248-4.1405-8.504-8.5762-10.3827z" clip-rule="evenodd" fill="#979797" fill-rule="evenodd"/></g></svg>