<?xml version="1.0" encoding="UTF-8"?>
<!DOCTYPE svg PUBLIC "-//W3C//DTD SVG 1.1//EN" "http://www.w3.org/Graphics/SVG/1.1/DTD/svg11.dtd">
<!-- Creator: CorelDRAW 2021 (64 Bit) -->
<svg xmlns="http://www.w3.org/2000/svg" xml:space="preserve" width="181px" height="194px" version="1.1" style="shape-rendering:geometricPrecision; text-rendering:geometricPrecision; image-rendering:optimizeQuality; fill-rule:evenodd; clip-rule:evenodd"
viewBox="0 0 9.69 10.34"
 xmlns:xlink="http://www.w3.org/1999/xlink"
 xmlns:xodm="http://www.corel.com/coreldraw/odm/2003">
 <defs>
  <style type="text/css">
   <![CDATA[
    .fil1 {fill:#FEFEFE}
    .fil0 {fill:#FEFEFE;fill-rule:nonzero}
   ]]>
  </style>
 </defs>
 <g id="Camada_x0020_1">
  <metadata id="CorelCorpID_0Corel-Layer"/>
  <g id="_2329449807072">
   <g id="g5">
    <path id="path7" class="fil0" d="M0.58 7.77c-0.11,0 -0.21,0.02 -0.3,0.08 -0.09,0.06 -0.16,0.14 -0.21,0.25 -0.05,0.11 -0.07,0.24 -0.07,0.38 0,0.14 0.02,0.26 0.07,0.38 0.04,0.12 0.1,0.21 0.18,0.27 0.09,0.06 0.19,0.09 0.32,0.09 0.13,0 0.24,-0.04 0.33,-0.12 0.09,-0.08 0.15,-0.19 0.18,-0.35l-0.16 -0.05c-0.02,0.12 -0.07,0.21 -0.13,0.27 -0.06,0.06 -0.14,0.09 -0.23,0.09 -0.07,0 -0.14,-0.02 -0.21,-0.06 -0.06,-0.05 -0.11,-0.12 -0.14,-0.2 -0.03,-0.09 -0.04,-0.2 -0.04,-0.32 0,-0.09 0.01,-0.18 0.04,-0.27 0.02,-0.09 0.07,-0.16 0.13,-0.21 0.06,-0.05 0.14,-0.08 0.23,-0.08 0.09,0 0.15,0.03 0.21,0.07 0.05,0.05 0.09,0.13 0.12,0.23l0.16 -0.04c-0.03,-0.13 -0.09,-0.24 -0.17,-0.31 -0.09,-0.07 -0.19,-0.1 -0.31,-0.1l0 0zm5.25 0.02l0 1.41 0.25 0 0 -0.59 0.05 0c0.06,0 0.1,0.01 0.13,0.02 0.02,0.01 0.05,0.03 0.07,0.05 0.02,0.03 0.07,0.1 0.13,0.21l0.18 0.31 0.29 0 -0.15 -0.28c-0.05,-0.11 -0.1,-0.18 -0.14,-0.23 -0.03,-0.04 -0.07,-0.08 -0.13,-0.11 0.11,-0.02 0.19,-0.06 0.24,-0.13 0.06,-0.07 0.08,-0.16 0.08,-0.27 0,-0.08 -0.01,-0.15 -0.05,-0.22 -0.03,-0.06 -0.08,-0.11 -0.14,-0.13 -0.06,-0.03 -0.16,-0.04 -0.29,-0.04l-0.52 0zm1.59 0l-0.48 1.41 0.27 0 0.1 -0.32 0.49 0 0.1 0.32 0.27 0 -0.49 -1.41 -0.26 0zm-3.69 0l0 1.41 0.15 0 0 -1.41 -0.15 0zm0.87 0l0 1.41 0.46 0c0.09,0 0.17,-0.01 0.22,-0.03 0.07,-0.03 0.13,-0.06 0.18,-0.11 0.05,-0.07 0.1,-0.15 0.13,-0.25 0.02,-0.09 0.03,-0.19 0.03,-0.3 0,-0.13 -0.01,-0.25 -0.04,-0.34 -0.02,-0.09 -0.06,-0.16 -0.11,-0.22 -0.05,-0.07 -0.12,-0.11 -0.19,-0.13 -0.05,-0.02 -0.13,-0.03 -0.23,-0.03l-0.45 0zm3.49 0l0.29 1.41 0.27 0 0.24 -1.05 0.24 1.05 0.27 0 0.29 -1.41 -0.25 0 -0.18 0.98 -0.22 -0.98 -0.29 0 -0.22 0.97 -0.19 -0.97 -0.25 0zm-3.24 0.24l0.11 0c0.1,0 0.17,0 0.2,0.01 0.05,0.01 0.08,0.03 0.11,0.07 0.03,0.03 0.06,0.08 0.07,0.13 0.02,0.06 0.03,0.15 0.03,0.25 0,0.11 -0.01,0.2 -0.03,0.26 -0.01,0.07 -0.03,0.11 -0.06,0.14 -0.03,0.03 -0.06,0.05 -0.1,0.06 -0.03,0.01 -0.08,0.01 -0.15,0.01l-0.18 0 0 -0.93 0 0zm1.23 0l0.19 0c0.1,0 0.16,0 0.19,0 0.04,0.01 0.07,0.03 0.09,0.06 0.02,0.03 0.03,0.07 0.03,0.11 0,0.05 -0.01,0.08 -0.02,0.11 -0.02,0.03 -0.04,0.05 -0.07,0.06 -0.03,0.01 -0.11,0.02 -0.23,0.02l-0.18 0 0 -0.36zm1.47 0.09l0.17 0.52 -0.34 0 0.17 -0.52zm-5.01 0.04c-0.04,0 -0.07,0.01 -0.1,0.03 -0.03,0.02 -0.06,0.07 -0.09,0.14l0 -0.15 -0.14 0 0 1.02 0.15 0 0 -0.54c0,-0.07 0.01,-0.14 0.03,-0.2 0.01,-0.04 0.03,-0.07 0.05,-0.09 0.03,-0.02 0.06,-0.04 0.09,-0.04 0.04,0 0.07,0.02 0.11,0.04l0.05 -0.16c-0.05,-0.04 -0.1,-0.05 -0.15,-0.05zm0.6 0c-0.12,0 -0.22,0.04 -0.29,0.14 -0.08,0.09 -0.12,0.23 -0.12,0.4 0,0.16 0.04,0.29 0.12,0.38 0.07,0.1 0.17,0.14 0.3,0.14 0.11,0 0.19,-0.03 0.26,-0.08 0.06,-0.06 0.11,-0.14 0.13,-0.25l-0.15 -0.02c-0.03,0.07 -0.06,0.13 -0.1,0.16 -0.03,0.03 -0.08,0.05 -0.14,0.05 -0.07,0 -0.13,-0.03 -0.18,-0.09 -0.05,-0.06 -0.08,-0.15 -0.08,-0.26l0.66 0c0,-0.02 0,-0.03 0,-0.04 0,-0.17 -0.04,-0.3 -0.11,-0.4 -0.08,-0.09 -0.18,-0.13 -0.3,-0.13zm-1.52 0c-0.11,0 -0.2,0.03 -0.28,0.11 -0.09,0.09 -0.13,0.23 -0.13,0.42 0,0.17 0.03,0.3 0.11,0.39 0.08,0.1 0.18,0.14 0.3,0.14 0.08,0 0.15,-0.02 0.22,-0.06 0.06,-0.04 0.11,-0.1 0.15,-0.18 0.03,-0.07 0.05,-0.17 0.05,-0.31 0,-0.16 -0.04,-0.28 -0.12,-0.38 -0.08,-0.09 -0.18,-0.13 -0.3,-0.13l0 0zm1.53 0.14c0.07,0 0.13,0.03 0.18,0.1 0.03,0.04 0.05,0.11 0.06,0.19l-0.5 0c0.01,-0.09 0.04,-0.16 0.08,-0.21 0.05,-0.06 0.11,-0.08 0.18,-0.08l0 0zm-1.53 0c0.08,0 0.14,0.03 0.19,0.1 0.05,0.06 0.07,0.16 0.07,0.28 0,0.14 -0.02,0.24 -0.07,0.3 -0.05,0.07 -0.11,0.1 -0.19,0.1 -0.07,0 -0.14,-0.03 -0.19,-0.1 -0.05,-0.06 -0.07,-0.16 -0.07,-0.29 0,-0.13 0.02,-0.23 0.07,-0.29 0.05,-0.07 0.12,-0.1 0.19,-0.1l0 0z"/>
    <path id="path25" class="fil0" d="M4.68 9.4c-0.06,0 -0.11,0.02 -0.16,0.05 -0.04,0.03 -0.08,0.07 -0.1,0.13 -0.02,0.06 -0.04,0.13 -0.04,0.2 0,0.07 0.02,0.14 0.04,0.19 0.02,0.06 0.06,0.11 0.11,0.14 0.04,0.03 0.1,0.04 0.15,0.04 0.05,0 0.09,-0.01 0.13,-0.03 0.04,-0.01 0.08,-0.04 0.12,-0.08l0 -0.27 -0.25 0 0 0.09 0.17 0 0 0.13c-0.02,0.02 -0.04,0.04 -0.07,0.05 -0.03,0.02 -0.07,0.03 -0.1,0.03 -0.04,0 -0.08,-0.01 -0.11,-0.04 -0.03,-0.02 -0.06,-0.05 -0.08,-0.09 -0.02,-0.05 -0.03,-0.1 -0.03,-0.16 0,-0.06 0.01,-0.11 0.03,-0.15 0.01,-0.03 0.02,-0.05 0.03,-0.07 0.02,-0.02 0.04,-0.04 0.07,-0.06 0.02,-0.01 0.05,-0.02 0.09,-0.02 0.03,0 0.05,0.01 0.08,0.02 0.02,0.02 0.04,0.03 0.05,0.05 0.02,0.03 0.03,0.05 0.04,0.09l0.07 -0.02c-0.01,-0.05 -0.03,-0.09 -0.05,-0.12 -0.02,-0.03 -0.04,-0.05 -0.08,-0.07 -0.03,-0.02 -0.07,-0.03 -0.11,-0.03l0 0zm3.42 0c-0.04,0 -0.07,0.01 -0.1,0.03 -0.04,0.01 -0.06,0.04 -0.08,0.07 -0.01,0.03 -0.02,0.07 -0.02,0.1 0,0.04 0,0.07 0.02,0.09 0.01,0.03 0.03,0.05 0.06,0.07 0.02,0.02 0.06,0.03 0.11,0.05 0.06,0.01 0.09,0.02 0.11,0.03 0.02,0.01 0.04,0.03 0.05,0.04 0.01,0.02 0.02,0.04 0.02,0.06 0,0.03 -0.01,0.05 -0.02,0.07 -0.01,0.02 -0.03,0.03 -0.05,0.04 -0.02,0.01 -0.05,0.02 -0.08,0.02 -0.03,0 -0.06,-0.01 -0.09,-0.02 -0.03,-0.02 -0.05,-0.04 -0.06,-0.06 -0.01,-0.02 -0.02,-0.05 -0.02,-0.09l-0.08 0.01c0.01,0.05 0.02,0.09 0.04,0.13 0.02,0.04 0.05,0.06 0.08,0.08 0.04,0.02 0.08,0.03 0.13,0.03 0.05,0 0.08,-0.01 0.12,-0.03 0.03,-0.01 0.06,-0.04 0.07,-0.08 0.02,-0.03 0.03,-0.07 0.03,-0.1 0,-0.04 -0.01,-0.08 -0.02,-0.11 -0.02,-0.03 -0.05,-0.05 -0.08,-0.07 -0.02,-0.01 -0.07,-0.03 -0.13,-0.05 -0.06,-0.01 -0.1,-0.03 -0.12,-0.05 -0.01,-0.02 -0.02,-0.04 -0.02,-0.06 0,-0.03 0.01,-0.06 0.03,-0.08 0.02,-0.02 0.06,-0.03 0.11,-0.03 0.04,0 0.07,0.01 0.1,0.03 0.02,0.03 0.03,0.06 0.04,0.11l0.07 -0.01c0,-0.04 -0.01,-0.08 -0.03,-0.12 -0.01,-0.03 -0.04,-0.05 -0.07,-0.07 -0.04,-0.02 -0.07,-0.03 -0.12,-0.03l0 0zm-1.89 0.01l0 0.73 0.07 0 0 -0.29c0,-0.04 0.01,-0.07 0.02,-0.09 0,-0.03 0.02,-0.05 0.04,-0.06 0.01,-0.01 0.03,-0.02 0.05,-0.02 0.03,0 0.06,0.01 0.07,0.03 0.02,0.02 0.02,0.05 0.02,0.1l0 0.33 0.08 0 0 -0.33c0,-0.05 -0.01,-0.09 -0.02,-0.12 -0.01,-0.03 -0.03,-0.05 -0.05,-0.06 -0.02,-0.02 -0.05,-0.03 -0.08,-0.03 -0.05,0 -0.09,0.03 -0.13,0.08l0 -0.27 -0.07 0zm0.46 0l0 0.11 0.07 0 0 -0.11 -0.07 0zm2.22 0l0 0.11 0.07 0 0 -0.11 -0.07 0zm0.27 0.02l-0.07 0.05 0 0.13 -0.05 0 0 0.07 0.05 0 0 0.31c0,0.05 0,0.08 0.01,0.1 0.01,0.02 0.02,0.03 0.03,0.04 0.01,0.01 0.03,0.02 0.06,0.02 0.02,0 0.03,-0.01 0.05,-0.01l-0.01 -0.08c-0.01,0 -0.02,0 -0.03,0 -0.01,0 -0.01,0 -0.02,0 -0.01,-0.01 -0.01,-0.01 -0.01,-0.02 -0.01,-0.01 -0.01,-0.02 -0.01,-0.05l0 -0.31 0.08 0 0 -0.07 -0.08 0 0 -0.18 0 0zm-3.97 0.17c-0.02,0 -0.04,0.01 -0.05,0.02 -0.01,0.01 -0.03,0.04 -0.05,0.07l0 -0.08 -0.06 0 0 0.53 0.07 0 0 -0.27c0,-0.04 0.01,-0.08 0.01,-0.11 0.01,-0.02 0.02,-0.04 0.03,-0.05 0.01,-0.01 0.03,-0.01 0.04,-0.01 0.02,0 0.04,0 0.05,0.01l0.03 -0.08c-0.03,-0.02 -0.05,-0.03 -0.07,-0.03l0 0zm0.75 0c-0.02,0 -0.05,0.01 -0.07,0.02 -0.01,0.02 -0.03,0.04 -0.05,0.06l0 -0.07 -0.06 0 0 0.73 0.07 0 0 -0.26c0.01,0.02 0.03,0.04 0.05,0.05 0.01,0.01 0.04,0.02 0.06,0.02 0.03,0 0.06,-0.01 0.09,-0.03 0.03,-0.03 0.06,-0.06 0.07,-0.1 0.02,-0.05 0.02,-0.09 0.02,-0.15 0,-0.05 0,-0.09 -0.02,-0.13 -0.01,-0.05 -0.03,-0.08 -0.06,-0.1 -0.03,-0.03 -0.06,-0.04 -0.1,-0.04l0 0zm1.08 0c-0.04,0 -0.07,0.01 -0.1,0.03 -0.03,0.03 -0.06,0.06 -0.07,0.1 -0.02,0.04 -0.02,0.09 -0.02,0.15 0,0.09 0.01,0.15 0.05,0.2 0.03,0.05 0.08,0.07 0.14,0.07 0.04,0 0.08,-0.02 0.12,-0.05 0.03,-0.03 0.05,-0.08 0.05,-0.14l-0.07 -0.01c0,0.04 -0.01,0.08 -0.03,0.1 -0.02,0.02 -0.04,0.03 -0.07,0.03 -0.04,0 -0.07,-0.02 -0.09,-0.05 -0.02,-0.03 -0.03,-0.08 -0.03,-0.15 0,-0.07 0.01,-0.12 0.03,-0.16 0.03,-0.03 0.06,-0.04 0.09,-0.04 0.03,0 0.05,0.01 0.06,0.02 0.02,0.02 0.03,0.05 0.04,0.08l0.07 -0.01c-0.01,-0.05 -0.03,-0.09 -0.06,-0.12 -0.03,-0.03 -0.06,-0.05 -0.11,-0.05l0 0zm0.38 0c-0.03,0 -0.05,0.01 -0.07,0.01 -0.02,0.01 -0.03,0.02 -0.04,0.03 -0.02,0.01 -0.03,0.03 -0.04,0.05 -0.01,0.02 -0.01,0.04 -0.01,0.06 0,0.03 0.01,0.05 0.02,0.07 0.01,0.03 0.02,0.04 0.04,0.05 0.02,0.02 0.06,0.03 0.11,0.05 0.04,0.01 0.06,0.02 0.07,0.03 0.02,0.01 0.03,0.02 0.03,0.04 0,0.03 -0.01,0.05 -0.03,0.06 -0.01,0.02 -0.04,0.03 -0.07,0.03 -0.03,0 -0.06,-0.01 -0.08,-0.03 -0.02,-0.02 -0.03,-0.05 -0.03,-0.08l-0.07 0.01c0.01,0.06 0.02,0.1 0.05,0.13 0.03,0.03 0.07,0.04 0.13,0.04 0.03,0 0.06,-0.01 0.09,-0.02 0.02,-0.01 0.04,-0.03 0.06,-0.06 0.01,-0.03 0.02,-0.06 0.02,-0.08 0,-0.03 -0.01,-0.06 -0.02,-0.08 -0.01,-0.02 -0.03,-0.04 -0.05,-0.05 -0.02,-0.01 -0.05,-0.02 -0.1,-0.04 -0.04,-0.01 -0.06,-0.02 -0.07,-0.02 -0.01,-0.01 -0.02,-0.02 -0.02,-0.03 -0.01,0 -0.01,-0.01 -0.01,-0.03 0,-0.01 0.01,-0.03 0.02,-0.04 0.01,-0.02 0.04,-0.02 0.07,-0.02 0.03,0 0.05,0 0.07,0.02 0.01,0.01 0.02,0.04 0.02,0.06l0.07 -0.01c0,-0.03 -0.01,-0.06 -0.02,-0.08 -0.01,-0.02 -0.03,-0.04 -0.06,-0.05 -0.02,-0.01 -0.05,-0.02 -0.08,-0.02l0 0zm2.08 0c-0.06,0 -0.11,0.03 -0.14,0.08 -0.04,0.04 -0.06,0.11 -0.06,0.2 0,0.09 0.02,0.15 0.06,0.2 0.03,0.05 0.08,0.07 0.14,0.07 0.05,0 0.09,-0.01 0.12,-0.04 0.04,-0.03 0.06,-0.07 0.07,-0.13l-0.08 -0.01c-0.01,0.04 -0.02,0.06 -0.04,0.08 -0.02,0.02 -0.04,0.03 -0.07,0.03 -0.03,0 -0.06,-0.02 -0.09,-0.05 -0.02,-0.03 -0.03,-0.07 -0.04,-0.13l0.32 0c0,-0.01 0,-0.02 0,-0.02 0,-0.09 -0.02,-0.16 -0.05,-0.21 -0.04,-0.04 -0.08,-0.07 -0.14,-0.07zm-4 0c-0.03,0 -0.07,0.01 -0.09,0.02 -0.03,0.01 -0.05,0.03 -0.07,0.06 -0.01,0.02 -0.02,0.05 -0.03,0.09l0.07 0.01c0.01,-0.04 0.02,-0.07 0.04,-0.08 0.01,-0.02 0.04,-0.02 0.07,-0.02 0.04,0 0.07,0.01 0.08,0.03 0.02,0.01 0.02,0.04 0.02,0.07 0,0.01 0,0.01 0,0.03 -0.02,0.01 -0.07,0.02 -0.12,0.03 -0.03,0 -0.05,0.01 -0.07,0.01 -0.02,0.01 -0.03,0.02 -0.05,0.03 -0.02,0.01 -0.03,0.03 -0.04,0.05 -0.01,0.02 -0.01,0.05 -0.01,0.07 0,0.04 0.01,0.08 0.04,0.11 0.02,0.03 0.06,0.04 0.1,0.04 0.03,0 0.06,0 0.08,-0.02 0.03,-0.01 0.05,-0.03 0.08,-0.06 0,0.03 0.01,0.05 0.01,0.07l0.08 0c-0.01,-0.02 -0.02,-0.04 -0.02,-0.06 0,-0.02 0,-0.08 0,-0.16l0 -0.12c0,-0.04 0,-0.06 -0.01,-0.08 0,-0.02 -0.01,-0.04 -0.02,-0.06 -0.01,-0.02 -0.03,-0.03 -0.05,-0.04 -0.02,-0.01 -0.05,-0.02 -0.09,-0.02l0 0zm1.19 0.01l0 0.53 0.07 0 0 -0.53 -0.07 0zm2.22 0l0 0.53 0.07 0 0 -0.53 -0.07 0zm-0.46 0l0 0.33c0,0.04 0.01,0.07 0.01,0.08 0,0.03 0.01,0.05 0.02,0.07 0.01,0.02 0.03,0.03 0.05,0.04 0.02,0.02 0.04,0.02 0.07,0.02 0.05,0 0.1,-0.03 0.13,-0.09l0 0.08 0.07 0 0 -0.53 -0.08 0 0 0.29c0,0.04 0,0.08 -0.01,0.1 0,0.02 -0.02,0.04 -0.04,0.05 -0.02,0.02 -0.04,0.02 -0.06,0.02 -0.02,0 -0.04,0 -0.05,-0.01 -0.02,-0.02 -0.03,-0.04 -0.03,-0.06 0,-0.02 0,-0.05 0,-0.09l0 -0.3 -0.08 0 0 0zm-2.49 0.06c0.03,0 0.06,0.02 0.08,0.05 0.02,0.04 0.03,0.09 0.03,0.15 0,0.07 -0.01,0.12 -0.03,0.16 -0.03,0.03 -0.05,0.05 -0.08,0.05 -0.04,0 -0.06,-0.02 -0.08,-0.05 -0.03,-0.03 -0.04,-0.08 -0.04,-0.15 0,-0.07 0.01,-0.12 0.04,-0.15 0.02,-0.04 0.05,-0.06 0.08,-0.06l0 0zm3.54 0.01c0.04,0 0.07,0.01 0.09,0.05 0.01,0.02 0.02,0.05 0.03,0.1l-0.24 0c0,-0.05 0.01,-0.09 0.04,-0.11 0.02,-0.03 0.05,-0.04 0.08,-0.04zm-3.91 0.2l0 0.03c0,0.04 0,0.07 -0.01,0.09 -0.01,0.02 -0.02,0.04 -0.05,0.06 -0.02,0.01 -0.04,0.02 -0.07,0.02 -0.03,0 -0.05,-0.01 -0.06,-0.02 -0.02,-0.02 -0.02,-0.04 -0.02,-0.06 0,-0.02 0,-0.03 0.01,-0.04 0,-0.02 0.01,-0.03 0.02,-0.03 0.02,-0.01 0.04,-0.01 0.07,-0.02 0.05,-0.01 0.09,-0.02 0.11,-0.03l0 0z"/>
    <polygon id="polygon57" class="fil1" points="6.65,6.18 5.54,6.19 5.7,6.79 6.49,6.79 "/>
    <path id="path59" class="fil1" d="M5.68 0c-0.11,0.01 -0.09,0 -0.2,0.03 -2.9,0.71 -1.06,4.56 0.28,5.71l0.11 0.08c-0.93,-1.44 -2.46,-4.93 -0.19,-5.82l0 0zm0.86 0c2.28,0.89 0.74,4.38 -0.18,5.82l0.11 -0.08c1.34,-1.15 3.18,-5 0.28,-5.71 -0.12,-0.03 -0.09,-0.02 -0.21,-0.03l0 0zm-0.45 0.04c-0.22,0.01 -0.42,0.22 -0.52,0.39 -0.65,1.14 -0.23,3.09 0.07,4.25l0.1 0.4c0.07,0.23 0.14,0.43 0.21,0.68l0.03 0.09 0.02 0.04 0.19 0 0.02 -0.01 0.03 -0.06c0.12,-0.28 0.43,-1.45 0.49,-1.75 0.17,-0.81 0.3,-1.64 0.24,-2.47 -0.02,-0.31 -0.09,-0.66 -0.22,-0.95 -0.1,-0.23 -0.24,-0.49 -0.5,-0.59 -0.06,-0.02 -0.11,-0.02 -0.16,-0.02l0 0zm-1.55 0.27c-0.57,0.24 -1.01,0.76 -1.1,1.33l-0.02 0.24 0 0.2 0.03 0.21 0.01 0.1c0.23,1.13 1.26,2.6 2.16,3.38 -1.25,-1.51 -3.14,-3.91 -1.08,-5.46zm3.14 0c2.06,1.55 0.17,3.95 -1.08,5.46 0.91,-0.78 1.94,-2.25 2.16,-3.38l0.02 -0.1 0.03 -0.21 0 -0.2 -0.02 -0.24c-0.1,-0.57 -0.53,-1.09 -1.11,-1.33l0 0z"/>
   </g>
  </g>
 </g>
</svg>
