<?xml version="1.0" encoding="UTF-8"?>
<!DOCTYPE svg PUBLIC "-//W3C//DTD SVG 1.1//EN" "http://www.w3.org/Graphics/SVG/1.1/DTD/svg11.dtd">
<!-- Creator: CorelDRAW 2021 (64 Bit) -->
<svg xmlns="http://www.w3.org/2000/svg" xml:space="preserve" width="141px" height="195px" version="1.1" style="shape-rendering:geometricPrecision; text-rendering:geometricPrecision; image-rendering:optimizeQuality; fill-rule:evenodd; clip-rule:evenodd"
viewBox="0 0 6.81 9.42"
 xmlns:xlink="http://www.w3.org/1999/xlink"
 xmlns:xodm="http://www.corel.com/coreldraw/odm/2003">
 <defs>
  <style type="text/css">
   <![CDATA[
    .str0 {stroke:#393738;stroke-width:0.11;stroke-miterlimit:22.9256}
    .fil1 {fill:white}
    .fil0 {fill:white;fill-rule:nonzero}
   ]]>
  </style>
 </defs>
 <g id="Camada_x0020_1">
  <metadata id="CorelCorpID_0Corel-Layer"/>
  <g id="_2329448755920">
   <polygon class="fil0" points="1.86,0.85 1.86,0.44 2.45,0.44 2.45,0 1.42,0 1.42,1.25 2.45,1.25 2.45,0.85 "/>
   <path class="fil0" d="M3.51 0.44l0.42 0 0 -0.44 -1.04 0c0,0 0,0.22 0,0.44 0.14,0.14 0.21,0.21 0.41,0.41 -0.11,0 -0.41,0 -0.41,0l0 0.4 1.04 0 0 -0.4 -0.42 -0.41z"/>
   <path class="fil0" d="M4.98 0.44l0.41 0 0 -0.44 -1.03 0c0,0 0,0.22 0,0.44 0.14,0.14 0.21,0.21 0.41,0.41 -0.12,0 -0.41,0 -0.41,0l0 0.4 1.03 0 0 -0.4 -0.41 -0.41z"/>
   <path class="fil1 str0" d="M0.06 1.84l6.69 0 -0.63 6.79 -2.71 0.74 -2.72 -0.74 -0.63 -6.79zm1.24 1.38l4.21 0 -0.09 0.82 -1.99 0.86 1.92 0 -0.22 2.54 -1.71 0.5 -1.71 -0.5 -0.11 -1.29 0.82 0 0.14 0.68 0.86 0.22 0.92 -0.26 0.09 -1.07 -2.89 -0.02 -0.06 -0.8 2.04 -0.86 -2.11 0 -0.11 -0.82z"/>
  </g>
 </g>
</svg>
