<?xml version="1.0" encoding="UTF-8"?>
<!DOCTYPE svg PUBLIC "-//W3C//DTD SVG 1.1//EN" "http://www.w3.org/Graphics/SVG/1.1/DTD/svg11.dtd">
<!-- Creator: CorelDRAW 2021 (64 Bit) -->
<svg xmlns="http://www.w3.org/2000/svg" xml:space="preserve" width="410px" height="194px" version="1.1" style="shape-rendering:geometricPrecision; text-rendering:geometricPrecision; image-rendering:optimizeQuality; fill-rule:evenodd; clip-rule:evenodd"
viewBox="0 0 184.79 87.24"
 xmlns:xlink="http://www.w3.org/1999/xlink"
 xmlns:xodm="http://www.corel.com/coreldraw/odm/2003">
 <defs>
  <style type="text/css">
   <![CDATA[
    .fil0 {fill:white}
   ]]>
  </style>
 </defs>
 <g id="Camada_x0020_1">
  <metadata id="CorelCorpID_0Corel-Layer"/>
  <path class="fil0" d="M29.43 28.09l10.73 -0.04 5.88 -0.08c0.62,-0.28 1.26,-0.53 1.9,-0.79 2.55,-1 5.19,-2.04 7.51,-6.14 1.18,-2.06 1.73,-4.32 1.74,-6.57 0,-2.36 -0.6,-4.73 -1.74,-6.89 -4.23,-8.08 -12.58,-7.78 -21.45,-7.45 -1.52,0.05 -3.06,0.11 -4.53,0.12l-0.04 27.84zm13.85 1.57c7.79,0 14.1,6.32 14.1,14.1 0,7.79 -6.31,14.1 -14.1,14.1 -7.78,0 -14.09,-6.31 -14.09,-14.1 0,-7.78 6.31,-14.1 14.09,-14.1zm-14.45 16.8l-0.45 -1.09 0.45 1.09zm-0.35 -4.16l0.41 -1.17 -0.41 1.17zm68.76 -11.63c5.31,-1.24 3.94,-5.67 0.43,-5.67 -0.99,0 -4.53,2.36 -0.68,5.48 0.04,0.04 0.17,0.12 0.25,0.19zm-1.31 24.39l3.92 0 0 -20.91 -3.92 0 0 20.91zm-21.78 0l4.35 0 0 -14.81 9.59 0c0,-5.49 1.48,-4.36 -9.59,-4.36l0 -7.84 12.2 0 0 -4.35 -16.55 0 0 31.36zm93.65 -9.15c0,-4.15 0.76,-8.27 6.53,-8.27 8.8,0 7.6,13.94 0.44,13.94 -3.5,0 -6.97,-2.3 -6.97,-5.67zm-4.35 -2.18c0,8.22 7.46,15.53 16.98,9.15l0 1.74 4.36 0 0 -20.9 -4.36 0 0 2.17c-4.61,-3.09 -9.59,-4.01 -13.84,0.53 -1.42,1.51 -3.14,4.6 -3.14,7.31zm-53.58 0.44c0,-4.33 1.05,-6.53 6.1,-6.53 5.4,0 6.99,11.32 -1.31,11.32 -2.48,0 -4.79,-2.41 -4.79,-4.79zm-4.36 -0.87c0,5.94 6.35,13.5 14.81,7.84 0,2.76 0.2,4.19 -1.02,5.95 -2.88,4.13 -8.06,1.53 -9,1.46 -0.44,1.91 -1.13,1.82 -1.3,3.92 1.03,0.24 3.96,1.3 4.79,1.3 5.67,0 10.89,-4.5 10.89,-10.02l0 -18.73c0,-1.6 -0.93,-1.3 -3.05,-1.3 -1.32,0 -1.21,0.51 -1.31,1.74 -9.12,-6.11 -14.81,2.54 -14.81,7.84zm29.19 -7.84l0 -1.31 -4.36 0 0 20.91 4.36 0 0 -13.07c0,-5.61 8.27,-5.73 8.27,-0.43l0 13.5 3.92 0c0,-4.71 -0.82,-14.42 1.16,-16.7 1.94,-2.21 5.01,-2.04 6.54,0.31 1.4,2.14 0.58,2.26 0.58,4.19l0 10.89c0,1.74 1.23,1.31 4.36,1.31 0,-8.69 2.14,-21.78 -7.41,-21.78 -3.25,0 -4.73,2.28 -6.53,3.49 -0.66,-2.45 -4.2,-3.49 -5.67,-3.49 -2.95,0 -3.57,1.07 -5.22,2.18zm-106.81 24.02l-16.69 0.02 0 0c-0.63,0.29 -1.23,0.49 -1.83,0.69 -0.76,0.25 -1.52,0.51 -2.26,0.93 -3.08,1.75 -5.14,4.36 -6.21,7.27 -0.7,1.94 -0.97,4 -0.81,6.04 0.16,2.03 0.75,4.02 1.77,5.81 1.51,2.66 3.96,4.88 7.32,6.11 1.66,0.6 3.37,0.9 5.04,0.89 2.66,-0.02 5.26,-0.79 7.45,-2.31 2.2,-1.51 4.01,-3.77 5.1,-6.75 0.73,-2.01 1.14,-4.34 1.13,-7 -0.02,-2.87 -0.01,-5.74 -0.01,-8.62l0 -3.08zm-0.37 -31.46l0.03 -14.94 0.02 -12.83c-1.37,-0.01 -2.81,-0.07 -4.25,-0.12 -8.62,-0.32 -17.21,-0.64 -21.67,7.33 -1.57,2.81 -2.03,6.21 -1.34,9.46 0.66,3.11 2.35,6.08 5.1,8.29 1.41,1.13 2.39,1.47 3.55,1.88 0.67,0.23 1.39,0.48 2.25,0.88 5.29,0 10.99,-0.22 16.31,0.05zm0.37 29.56l0 -1.63 0 0 0 -14.86 0.04 -0.11 0 -0.17 -0.01 -0.17 -0.03 -1.07 0 -0.43 0 -0.01 0 -0.03 0 -8.85 0 -0.28 -16.55 -0.09c-0.22,0.29 -0.51,0.35 -1.05,0.44 -0.25,0.05 -0.63,0.12 -1.23,0.32 -0.94,0.33 -1.07,0.41 -1.52,0.7l-0.62 0.38c-0.89,0.53 -1.41,0.87 -1.87,1.23 -0.45,0.36 -0.87,0.79 -1.54,1.52 -0.51,0.55 -0.97,1.15 -1.37,1.78 -1.65,2.63 -2.34,5.89 -1.97,9.1 0.37,3.2 1.79,6.33 4.34,8.71 0.63,0.58 1.33,1.12 2.09,1.6 1.19,0.75 1.69,0.9 2.43,1.13 0.31,0.1 0.66,0.21 1.05,0.34l1.1 0.46 0 0 16.71 -0.01z"/>
 </g>
</svg>
