<?xml version="1.0" encoding="UTF-8"?>
<!DOCTYPE svg PUBLIC "-//W3C//DTD SVG 1.1//EN" "http://www.w3.org/Graphics/SVG/1.1/DTD/svg11.dtd">
<!-- Creator: CorelDRAW 2021 (64 Bit) -->
<svg xmlns="http://www.w3.org/2000/svg" xml:space="preserve" width="372px" height="156px" version="1.1" style="shape-rendering:geometricPrecision; text-rendering:geometricPrecision; image-rendering:optimizeQuality; fill-rule:evenodd; clip-rule:evenodd"
viewBox="0 0 57.78 24.16"
 xmlns:xlink="http://www.w3.org/1999/xlink"
 xmlns:xodm="http://www.corel.com/coreldraw/odm/2003">
 <defs>
  <style type="text/css">
   <![CDATA[
    .fil0 {fill:white}
   ]]>
  </style>
 </defs>
 <g id="Camada_x0020_1">
  <metadata id="CorelCorpID_0Corel-Layer"/>
  <path class="fil0" d="M8.78 2.7c0.54,0.59 2.31,2.65 3.08,2.7 1.11,0.08 2.06,0.37 2.08,1.77 0.02,0.96 -0.13,0.64 0.51,1.25 0.58,0.56 1.56,1.44 1.97,2.03 4.1,-0.19 2.71,4.26 0.19,3.54 -1.7,-0.49 -1.11,-2.3 -1.33,-2.68l-2.36 -2.2c0.05,1.57 0.02,3.2 0.01,4.77 0,1.03 -0.22,1.4 0.43,2.06 1.85,1.87 -0.91,4.21 -2.52,2.66 -0.35,-0.33 -0.66,-1.09 -0.5,-1.81 0.19,-0.85 0.67,-0.86 1.08,-1.34l0.01 -6.43c-0.4,-0.38 -0.86,-0.58 -1.05,-1.23 -0.33,-1.11 0.39,-0.99 -0.28,-1.71 -0.55,-0.58 -1.73,-1.81 -2.38,-2.27 -0.83,0.62 -2.09,2.04 -2.92,2.87 -1.01,1.01 -1.92,1.91 -2.93,2.92 -0.62,0.63 -2.78,2.11 -1.44,3.57l8.9 8.94c0.63,0.64 2.13,2.74 3.58,1.82l10.3 -10.26c1.93,-1.91 0.7,-2.49 -1.98,-5.17 -2.01,-2.01 -3.92,-3.91 -5.93,-5.92 -0.62,-0.62 -2.15,-2.55 -3.3,-2.53 -0.92,0.02 -2.32,1.77 -3.22,2.65zm33.35 5.14c0.58,0.2 1.13,0.35 1.51,0.64l0.01 6.95c-0.13,0.65 -0.46,0.56 -1.53,0.71l0.03 1.81 6.49 0.01 0.08 -1.84c-1.93,-0.17 -1.56,-0.22 -1.56,-2.53l0.01 -7.63 -4.77 0.01 -0.27 1.87zm2.27 -7.72c-2.43,0.67 -1.6,4.9 1.55,3.9 2.15,-0.69 1.59,-4.76 -1.55,-3.9zm9.42 5.57c-0.24,-0.48 -0.14,-1.04 -0.14,-1.66 0,-0.59 -0.01,-1.15 0.03,-1.73l-2.17 0.05c-0.41,3.29 -1.38,2.99 -3.02,3.68l-0.04 2 1.75 0.01c0.32,2.3 -0.5,7.08 0.59,8.7 1.13,1.68 5.41,1.58 6.96,0.28 -0.11,-0.56 -0.34,-1.51 -0.68,-1.94 -2.06,0.63 -3.28,0.62 -3.34,-1.48 -0.04,-1.75 -0.05,-3.82 0.02,-5.57l3.41 -0.01 0.01 -2.25 -3.38 -0.08zm-16.49 13.83c0.89,2.3 -5.18,1.98 -5.69,0.96 -0.26,-0.52 0.06,-1.35 0.42,-1.54 0.34,-0.17 4.68,-0.05 5.27,0.58zm-3.6 -11.1c3.06,-1.15 4.11,3 1.66,3.72 -3.16,0.94 -3.95,-2.85 -1.66,-3.72zm-2.7 5.46c-0.32,0.7 -1.23,1.13 -1.67,1.79 -0.68,0.99 -0.28,2.07 0.64,2.45 0,0 -3.52,3.76 1.32,4.98 2.85,0.73 8.59,0.66 9.46,-2.85 0.34,-1.36 -0.03,-2.79 -0.82,-3.36 -1.34,-0.97 -5.59,-1.15 -7.58,-1.17 0.14,-0.49 0.39,-0.68 0.58,-1.19 2.37,0.14 4.17,0.28 5.71,-1.1 0.55,-0.49 1.03,-1.38 1.11,-2.43 0.11,-1.5 -0.38,-1.73 -0.77,-2.67l2.05 -0.19 0 -1.9c-1.64,-0.23 -3.46,0.05 -5.24,-0.2 -1.59,-0.23 -3.52,-0.03 -4.72,0.68 -1.03,0.62 -1.87,1.78 -1.93,3.45 -0.09,2.33 0.89,2.88 1.86,3.71z"/>
 </g>
</svg>
