<?xml version="1.0" encoding="UTF-8"?>
<!DOCTYPE svg PUBLIC "-//W3C//DTD SVG 1.1//EN" "http://www.w3.org/Graphics/SVG/1.1/DTD/svg11.dtd">
<!-- Creator: CorelDRAW 2021 (64 Bit) -->
<svg xmlns="http://www.w3.org/2000/svg" xml:space="preserve" width="217px" height="196px" version="1.1" style="shape-rendering:geometricPrecision; text-rendering:geometricPrecision; image-rendering:optimizeQuality; fill-rule:evenodd; clip-rule:evenodd"
viewBox="0 0 25.69 23.2"
 xmlns:xlink="http://www.w3.org/1999/xlink"
 xmlns:xodm="http://www.corel.com/coreldraw/odm/2003">
 <defs>
  <style type="text/css">
   <![CDATA[
    .fil0 {fill:white}
   ]]>
  </style>
 </defs>
 <g id="Camada_x0020_1">
  <metadata id="CorelCorpID_0Corel-Layer"/>
  <g id="_2329611838592">
   <path class="fil0" d="M12.52 0l-0.48 0c-0.05,0.02 -0.71,0.06 -0.84,0.08 -0.27,0.04 -0.55,0.09 -0.79,0.15 -5.87,1.55 -7.66,8.6 -3.76,12.74 0.72,0.76 1.68,1.47 2.8,1.9 0.2,0.08 0.53,0.24 0.75,0.1 0.23,-0.14 0.16,-0.5 0.16,-0.8 0,-0.31 0.01,-0.64 -0.01,-0.95 -1.03,0.16 -1.93,0.12 -2.41,-0.57 -0.17,-0.23 -0.45,-1.1 -0.94,-1.41 -0.81,-0.51 -0.15,-0.58 0.21,-0.51 0.18,0.04 0.35,0.14 0.47,0.23 0.59,0.48 0.65,1.17 1.51,1.34 0.32,0.06 0.65,0.03 0.95,-0.07 0.05,-0.01 0.09,-0.03 0.14,-0.05 0,0 0.05,-0.02 0.05,-0.02l0.03 -0.01c0.1,-0.08 0.05,-0.52 0.42,-0.93 0.04,-0.05 0.06,-0.05 0.07,-0.11 -1.8,-0.2 -3.13,-0.97 -3.41,-2.9 -0.16,-1.16 -0.04,-2.01 0.6,-2.82 0.05,-0.07 0.14,-0.12 0.1,-0.25 -0.15,-0.42 -0.16,-0.92 -0.07,-1.36 0.03,-0.15 0.12,-0.51 0.19,-0.6 0.6,-0.1 1.51,0.4 1.89,0.65 0.35,0.23 0.18,0.1 0.96,-0.02 0.97,-0.15 1.95,-0.13 2.89,0.1 0.31,0.08 0.19,0.07 0.44,-0.08 0.46,-0.28 1.19,-0.72 1.89,-0.65 0.17,0.23 0.27,0.94 0.25,1.32 -0.02,0.27 -0.06,0.42 -0.13,0.66 -0.04,0.12 0.13,0.22 0.29,0.47 0.48,0.73 0.56,1.61 0.41,2.61 -0.25,1.63 -1.28,2.47 -2.74,2.76 -0.19,0.04 -0.51,0.07 -0.69,0.12 0.09,0.15 0.26,0.23 0.38,0.62 0.1,0.3 0.12,0.56 0.12,0.9 0,0.33 -0.02,1.88 0,2.05 0.06,0.65 0.97,0.16 1.35,-0.02 0.46,-0.21 0.92,-0.49 1.28,-0.76 1.37,-1.02 2.71,-2.72 3.05,-5.12 0.36,-2.55 -0.61,-4.8 -1.83,-6.17 -2.44,-2.73 -5.3,-2.52 -5.55,-2.62z"/>
   <path class="fil0" d="M2.63 23.2l0.89 0c0.05,-0.02 0.55,-0.09 0.83,-0.18 0.18,-0.06 0.59,-0.24 0.68,-0.34 0.03,-0.05 0.01,-1.52 0.01,-1.71 0,-0.23 0.03,-1.6 -0.03,-1.7 -0.1,-0.07 -0.95,-0.03 -1.14,-0.03 -0.17,0 -1.07,-0.03 -1.14,0.03 -0.02,0.02 -0.02,0 -0.03,0.05l-0.01 0.55c0,0.8 -0.16,0.6 0.94,0.62l0 1.33c-0.84,0.15 -1.47,0.06 -1.83,-0.48 -0.35,-0.5 -0.42,-1.35 -0.34,-2.08 0.08,-0.76 0.32,-1.29 0.91,-1.54 0.32,-0.13 0.72,-0.13 1.1,-0.12 0.48,0.02 0.92,0.18 0.96,0.18 0.13,-0.01 -0.07,0.02 0.03,-0.01 0.11,-0.02 0.15,-0.39 0.19,-0.55 0.03,-0.15 0.13,-0.47 0.12,-0.61 -0.1,-0.05 -0.15,-0.09 -0.29,-0.14 -0.35,-0.12 -0.82,-0.19 -1.19,-0.2 -0.61,-0.02 -1.09,0 -1.62,0.2 -0.88,0.34 -1.36,1.07 -1.56,2.11 -0.19,0.96 -0.15,2.38 0.25,3.19 0.4,0.8 1.01,1.21 1.87,1.37 0.12,0.02 0.3,0.02 0.4,0.06z"/>
   <path class="fil0" d="M11.38 23.06c0.11,0.04 0.82,0.02 1.04,0.02 0.12,0 0.25,0.02 0.32,-0.04 0.07,-0.15 -0.01,-2.38 0.03,-2.79 0.58,0 1.33,-0.02 1.89,0l0 2.65c0,0.25 0.11,0.18 0.69,0.18 0.14,0 0.28,0 0.42,0 0.26,0 0.3,0.04 0.3,-0.22l0 -6.16c0,-0.25 -0.04,-0.19 -0.62,-0.19 -0.18,0 -0.67,-0.04 -0.77,0.05 -0.04,0.58 -0.01,1.73 -0.02,2.4l-1.89 0c-0.03,-0.39 0.02,-2.3 -0.03,-2.39 -0.04,-0.08 -0.14,-0.06 -0.24,-0.06l-0.99 0c-0.21,0.01 -0.16,0.12 -0.16,0.33 0.01,0.96 -0.03,6.08 0.03,6.22z"/>
   <path class="fil0" d="M22.82 19.83c0.25,-0.18 0.84,-0.32 1.15,-0.1 0.31,0.22 0.33,0.69 0.33,1.12 0,0.42 -0.02,0.94 -0.32,1.12 -0.32,0.19 -0.91,0.04 -1.16,-0.12l0 -2.02zm0.93 3.37l0.48 0c0.09,-0.04 0.34,-0.07 0.47,-0.12 0.41,-0.16 0.66,-0.49 0.81,-0.94 0.18,-0.54 0.23,-1.51 0.14,-2.11 -0.1,-0.68 -0.39,-1.21 -0.91,-1.43 -0.44,-0.18 -1.01,-0.17 -1.48,-0.01 -0.12,0.04 -0.35,0.16 -0.42,0.17 -0.04,-0.39 0.06,-2.02 -0.02,-2.2 -0.05,-0.08 -0.57,-0.05 -0.69,-0.05 -0.17,0 -0.58,-0.04 -0.69,0.05 -0.03,0.05 -0.01,5.21 -0.01,6.1 0,0.11 -0.05,0.37 0.07,0.41 0.08,0.03 0.85,0.02 0.91,-0.01 0.09,-0.05 0.07,-0.19 0.1,-0.31 0.03,0 0.2,0.12 0.24,0.15 0.19,0.11 0.42,0.19 0.63,0.24 0.08,0.02 0.32,0.04 0.37,0.06z"/>
   <path class="fil0" d="M17.98 23.2l0.64 0c0.04,-0.02 0.39,-0.08 0.62,-0.16 0.21,-0.08 0.37,-0.19 0.55,-0.26 0.02,0.09 0.01,0.22 0.08,0.28 0.08,0.05 0.79,0.04 0.9,0 0.05,-0.12 0.04,-4.38 0,-4.42 -0.06,-0.07 -1,-0.04 -1.21,-0.03 -0.15,0 -0.12,0.03 -0.14,0.04 -0.06,0.09 -0.02,2.82 -0.02,3.18 -0.28,0.15 -0.63,0.31 -0.99,0.2 -0.38,-0.11 -0.31,-0.54 -0.31,-0.94 0,-0.25 0.03,-2.4 -0.04,-2.46 -0.1,-0.04 -1.22,-0.04 -1.35,-0.01 -0.07,0.15 -0.03,2.55 -0.03,2.91 0,0.46 0.05,0.88 0.29,1.19 0.1,0.12 0.25,0.25 0.42,0.32 0.31,0.13 0.5,0.12 0.59,0.16z"/>
   <path class="fil0" d="M9.79 23.2l0.32 0c0.12,-0.05 0.54,-0.05 0.63,-0.15 0.05,-0.12 0.02,-0.35 0.02,-0.49 0,-0.14 0.04,-0.4 -0.03,-0.5 -0.09,-0.05 -0.49,0.04 -0.72,-0.06 -0.24,-0.1 -0.28,-0.26 -0.28,-0.57 0,-0.27 -0.01,-1.49 0.01,-1.66 1.12,-0.04 1,0.23 1,-0.58 0,-0.14 0.04,-0.5 -0.04,-0.57 -0.17,-0.08 -0.75,0.03 -0.95,-0.03 -0.09,-0.21 0.05,-1.08 -0.04,-1.25 -0.09,-0.03 -1.23,-0.03 -1.35,0 -0.07,0.3 0.03,0.94 -0.02,1.3 -0.18,0.05 -0.68,0.13 -0.72,0.22 -0.02,0.06 -0.01,0.38 -0.01,0.47 0,0.61 -0.07,0.41 0.73,0.44 0.07,0.72 -0.09,1.7 0.06,2.38 0.07,0.35 0.24,0.61 0.46,0.76 0.4,0.29 0.76,0.22 0.93,0.29z"/>
   <path class="fil0" d="M7.12 23.04c0.07,-0.19 0.03,-2.49 0.03,-2.91 0,-1.66 0.12,-1.53 -0.31,-1.53l-0.74 0c-0.11,0 -0.29,-0.03 -0.34,0.05 -0.04,0.06 -0.04,4.28 0,4.35 0.04,0.09 0.15,0.08 0.28,0.08 0.26,0 0.94,0.03 1.08,-0.04z"/>
   <path class="fil0" d="M6.34 16.67c-1.04,0.18 -0.77,1.72 0.26,1.55 0.38,-0.06 0.7,-0.45 0.62,-0.9 -0.06,-0.38 -0.41,-0.73 -0.88,-0.65z"/>
  </g>
 </g>
</svg>
