<?xml version="1.0" encoding="UTF-8"?>
<!DOCTYPE svg PUBLIC "-//W3C//DTD SVG 1.1//EN" "http://www.w3.org/Graphics/SVG/1.1/DTD/svg11.dtd">
<!-- Creator: CorelDRAW 2021 (64 Bit) -->
<svg xmlns="http://www.w3.org/2000/svg" xml:space="preserve" width="137px" height="194px" version="1.1" style="shape-rendering:geometricPrecision; text-rendering:geometricPrecision; image-rendering:optimizeQuality; fill-rule:evenodd; clip-rule:evenodd"
viewBox="0 0 5.64 7.96"
 xmlns:xlink="http://www.w3.org/1999/xlink"
 xmlns:xodm="http://www.corel.com/coreldraw/odm/2003">
 <defs>
  <style type="text/css">
   <![CDATA[
    .fil0 {fill:white;fill-rule:nonzero}
   ]]>
  </style>
 </defs>
 <g id="Camada_x0020_1">
  <metadata id="CorelCorpID_0Corel-Layer"/>
  <path class="fil0" d="M0.51 7.32l-0.51 -5.76 5.64 0 -0.52 5.76 -2.3 0.64 -2.31 -0.64zm0.01 -7.32l0.36 0 0 0.35 0.33 0 0 -0.35 0.36 0 0 1.07 -0.36 0 0 -0.36 -0.33 0 0 0.36 -0.36 0 0 -1.07 0 0zm1.52 0.36l-0.31 0 0 -0.36 0.99 0 0 0.36 -0.32 0 0 0.71 -0.36 0 0 -0.71zm0.83 -0.36l0.38 0 0.23 0.38 0.23 -0.38 0.37 0 0 1.07 -0.36 0 0 -0.53 -0.24 0.38 -0.01 0 -0.25 -0.38 0 0.53 -0.35 0 0 -1.07zm1.39 0l0.36 0 0 0.72 0.5 0 0 0.35 -0.86 0 0 -1.07zm-1.44 4.17l0 0 -0.93 0 -0.07 -0.72 1 0 0 0 1.7 0 0 0 0.02 -0.16 0.03 -0.36 0.02 -0.19 -1.77 0 0 0 -1.77 0 0.02 0.19 0.17 1.95 1.58 0 0 0 0.87 0 -0.09 0.91 -0.78 0.21 0 0 0 0 -0.79 -0.21 -0.05 -0.56 -0.38 0 -0.33 0 0.1 1.11 1.45 0.4 0 0 0 0 1.44 -0.4 0.01 -0.12 0.17 -1.86 0.02 -0.19 -0.19 0 -1.45 0z"/>
 </g>
</svg>
