<?xml version="1.0" encoding="UTF-8"?>
<!DOCTYPE svg PUBLIC "-//W3C//DTD SVG 1.1//EN" "http://www.w3.org/Graphics/SVG/1.1/DTD/svg11.dtd">
<!-- Creator: CorelDRAW 2021 (64 Bit) -->
<svg xmlns="http://www.w3.org/2000/svg" xml:space="preserve" width="190px" height="190px" version="1.1" style="shape-rendering:geometricPrecision; text-rendering:geometricPrecision; image-rendering:optimizeQuality; fill-rule:evenodd; clip-rule:evenodd"
viewBox="0 0 12.45 12.45"
 xmlns:xlink="http://www.w3.org/1999/xlink"
 xmlns:xodm="http://www.corel.com/coreldraw/odm/2003">
 <defs>
  <style type="text/css">
   <![CDATA[
    .fil0 {fill:#FEFEFE}
   ]]>
  </style>
 </defs>
 <g id="Camada_x0020_1">
  <metadata id="CorelCorpID_0Corel-Layer"/>
  <path class="fil0" d="M1.79 0l8.87 0c0.98,0 1.79,0.81 1.79,1.79l0 8.87c0,0.98 -0.81,1.79 -1.79,1.79l-8.87 0c-0.98,0 -1.79,-0.81 -1.79,-1.79l0 -8.87c0,-0.98 0.81,-1.79 1.79,-1.79zm6.42 4.14c0,-0.14 0.05,-0.27 0.15,-0.36 0.1,-0.1 0.23,-0.15 0.41,-0.15 0.16,0 0.3,0.05 0.4,0.15 0.1,0.09 0.15,0.22 0.15,0.36 0,0.16 -0.05,0.28 -0.15,0.38 -0.1,0.09 -0.24,0.14 -0.4,0.14 -0.17,0 -0.31,-0.05 -0.41,-0.14 -0.1,-0.1 -0.15,-0.22 -0.15,-0.38zm1.05 4.68l-0.99 0 0 -3.72 0.99 0 0 3.72zm-4.42 -1.87l1.25 0 -0.62 -1.87 -0.63 1.87zm1.53 0.84l-1.8 0 -0.35 1.03 -1.09 0 1.86 -5 0.95 0 1.87 5 -1.09 0 -0.35 -1.03z"/>
 </g>
</svg>
