<?xml version="1.0" encoding="UTF-8"?>
<!DOCTYPE svg PUBLIC "-//W3C//DTD SVG 1.1//EN" "http://www.w3.org/Graphics/SVG/1.1/DTD/svg11.dtd">
<!-- Creator: CorelDRAW 2021 (64 Bit) -->
<svg xmlns="http://www.w3.org/2000/svg" xml:space="preserve" width="137px" height="194px" version="1.1" style="shape-rendering:geometricPrecision; text-rendering:geometricPrecision; image-rendering:optimizeQuality; fill-rule:evenodd; clip-rule:evenodd"
viewBox="0 0 7.45 10.52"
 xmlns:xlink="http://www.w3.org/1999/xlink"
 xmlns:xodm="http://www.corel.com/coreldraw/odm/2003">
 <defs>
  <style type="text/css">
   <![CDATA[
    .fil0 {fill:white;fill-rule:nonzero}
   ]]>
  </style>
 </defs>
 <g id="Camada_x0020_1">
  <metadata id="CorelCorpID_0Corel-Layer"/>
  <path class="fil0" d="M3.92 0l0 0.38 0.41 0.58 -0.38 0 0 0.46 1.13 0 0 -0.44 -0.38 -0.48 0.38 0 0 -0.5 -1.16 0zm-0.2 10.52l-3.04 -0.85 -0.68 -7.6 7.45 0 -0.68 7.6 -3.05 0.85zm1.92 -5.01l-0.95 0 0.04 -0.97 1.25 -0.03 0.08 -0.89 -2.17 0 0 0.47 0 0.46 0 0.96 0 0.48 0 0.45 1.19 -0.08 -0.1 1.25 -1.09 0.27 0 0.97 1.74 -0.48 0.02 -0.16 0.22 -2.45 0.02 -0.25 -0.25 0zm-2.77 2.18l-0.55 -0.15 -0.04 -0.53 -0.6 -0.1 0.13 1.46 1.72 0.48 0 -0.45 0 -0.52 0 -4.26 -0.8 0 0.14 4.07zm0.17 -7.69l0 0.95 -0.19 0 0 -0.18 -0.48 0 0 0.65 1.14 0 0 -1.42 -0.47 0z"/>
 </g>
</svg>
