<?xml version="1.0" encoding="UTF-8"?>
<!DOCTYPE svg PUBLIC "-//W3C//DTD SVG 1.1//EN" "http://www.w3.org/Graphics/SVG/1.1/DTD/svg11.dtd">
<!-- Creator: CorelDRAW 2021 (64 Bit) -->
<svg xmlns="http://www.w3.org/2000/svg" xml:space="preserve" width="284px" height="194px" version="1.1" style="shape-rendering:geometricPrecision; text-rendering:geometricPrecision; image-rendering:optimizeQuality; fill-rule:evenodd; clip-rule:evenodd"
viewBox="0 0 236.24 160.87"
 xmlns:xlink="http://www.w3.org/1999/xlink"
 xmlns:xodm="http://www.corel.com/coreldraw/odm/2003">
 <defs>
  <style type="text/css">
   <![CDATA[
    .fil0 {fill:white}
   ]]>
  </style>
 </defs>
 <g id="Camada_x0020_1">
  <metadata id="CorelCorpID_0Corel-Layer"/>
  <g id="_2329602001600">
   <path class="fil0" d="M0 146.54l8.31 0c0,-0.5 0.08,-0.73 0.07,-1.29 0,-0.48 0,-0.97 0,-1.45l0.08 -4.12c0,-0.58 0.08,-0.82 0.08,-1.37 0,-0.48 0,-0.96 0,-1.45 -0.01,-0.58 0.08,-0.82 0.07,-1.36l0.25 -8.22c0.12,-0.84 0.14,-4.74 0.25,-5.46 0.12,-0.75 0.08,-1.91 0.11,-2.71 0.04,-1.31 0.21,-2.66 0.23,-4.04l0.71 -10.65c0.04,-0.31 0.1,-0.98 0.13,-1.31l0.12 0.25c0.05,0.13 0.08,0.22 0.12,0.35l3.22 10.19c0.91,2.7 1.68,5.44 2.59,8.15l6.46 20.37c0.14,0.44 0.29,0.95 0.43,1.39 0.3,0.88 0.64,1.83 0.85,2.73l7.01 0 1.73 -5.44c1.19,-3.59 2.26,-7.26 3.46,-10.86 0.61,-1.8 1.15,-3.66 1.76,-5.48 0.59,-1.78 1.14,-3.66 1.73,-5.43 1.74,-5.21 3.29,-10.45 4.99,-15.66 0.04,-0.13 0.08,-0.26 0.11,-0.35 0.08,-0.19 0.05,-0.16 0.17,-0.29 0,0.94 0.17,1.72 0.23,2.59l0.5 5.29c0.25,1.79 0.3,4.8 0.54,6.62l0.25 3.34c0.12,1.51 0.13,3.24 0.3,4.73 0.04,0.42 0.05,0.99 0.08,1.36 0.08,0.94 0.05,1.88 0.14,2.75l0.52 13.97c0.11,0.72 0.03,2.07 0.03,2.86l9.22 0 -0.23 -6.25c0,-0.46 -0.06,-0.62 -0.08,-0.99 -0.02,-0.37 0.02,-0.77 0.01,-1.14 -0.02,-0.37 -0.09,-0.53 -0.08,-0.99l-0.84 -14.33c-0.04,-1.65 -0.25,-3.4 -0.39,-5.1l-0.61 -7c-0.45,-4.31 -0.8,-8.63 -1.34,-12.91 -0.06,-0.51 -0.55,-5.61 -0.67,-5.81 -0.13,-0.23 -1.78,-0.12 -2.09,-0.12 -2.93,0 -5.85,0 -8.77,0 -0.1,0.42 -0.26,0.8 -0.38,1.22 -0.35,1.27 -0.83,2.53 -1.25,3.78 -0.57,1.71 -1.09,3.36 -1.66,5.05l-6.21 18.79c-0.14,0.44 -0.26,0.87 -0.4,1.28l-3.36 10.04c-0.2,-0.85 -3.03,-9.28 -3.29,-10.05l-9.08 -27.71c-0.15,-0.45 -0.29,-0.85 -0.42,-1.26 -0.09,-0.27 -0.23,-1.14 -0.54,-1.14l-10.98 0c-0.31,0 -0.22,0.31 -0.26,0.66 -0.03,0.26 -0.07,0.63 -0.1,0.81l-0.57 4.91c-0.35,2.71 -0.59,5.63 -0.88,8.34l-0.47 5.03c-0.04,0.59 -0.07,1.18 -0.14,1.69 -0.08,0.62 -0.03,1.08 -0.13,1.7 -0.07,0.54 -0.09,1.15 -0.12,1.71 -0.08,1.72 -0.36,3.44 -0.37,5.18l-0.31 4.27c-0.02,0.3 0.02,0.6 -0.01,0.9 -0.05,0.46 -0.1,1.22 -0.14,1.69 -0.02,0.29 0.01,0.62 0,0.91 -0.05,0.85 -0.16,1.79 -0.15,2.67l-0.16 2.59c-0.01,0.3 0.01,0.62 0,0.92 -0.01,0.38 -0.07,0.42 -0.08,0.83 0,0.3 0.01,0.62 0.01,0.92l-0.08 1.75c0.01,1.1 -0.16,2.39 -0.15,3.5 0,1.27 -0.08,2.31 -0.08,3.6l0 0.06z"/>
   <path class="fil0" d="M162.62 140.52c-2.92,0 -5.28,-0.41 -7.34,-1.96 -0.78,-0.59 -1.48,-1.24 -2.07,-2.03 -0.89,-1.18 -1.63,-2.64 -2.11,-4.08 -2.13,-6.44 -2.32,-16.11 -1.08,-22.82 0.77,-4.23 2.48,-8.19 6.19,-10.43 2.57,-1.55 7.13,-1.77 10.29,-0.5 2.46,0.99 4.17,2.68 5.34,5.02 1.32,2.62 1.86,4.91 2.32,8.12 0.17,1.17 0.34,2.6 0.35,3.84 0,0.43 0.07,0.49 0.08,0.91 0,0.36 0,0.72 -0.01,1.07l0.08 2.06c0,4.43 -0.4,8.55 -1.74,12.58 -0.9,2.71 -2.79,5.69 -5.37,6.98 -1.52,0.76 -3,1.24 -4.93,1.24zm-22.55 -22.17c0,6.17 0.06,10.21 1.92,16.14 0.22,0.69 0.54,1.43 0.81,2.08 0.23,0.58 0.64,1.41 0.96,1.94 0.68,1.15 1.15,1.91 2.04,2.91 0.15,0.17 0.17,0.24 0.34,0.42 1.61,1.67 2.27,2.04 4.1,3.13 2.54,1.52 6.87,2.41 10.63,2.41 1.6,0 2.74,-0.03 4.31,-0.26 3.7,-0.54 2.43,-1.2 4.79,0.23 0.57,0.34 1.08,0.63 1.64,0.95l9 5.25c0.24,0.13 0.58,0.39 0.84,0.46l1.31 -2.26c0.35,-0.62 2.1,-3.51 2.19,-3.91 -2.07,-1.1 -4.17,-2.04 -6.17,-3.05 -0.54,-0.27 -3.42,-1.75 -3.74,-1.83l2.08 -2.04c1.82,-1.81 3.7,-5.46 4.56,-7.86 1.59,-4.38 2.2,-9.44 2.2,-15.17 0,-7.76 -1.42,-14.24 -4.54,-18.93 -2.35,-3.53 -6.23,-6.25 -10.45,-7.15 -3.24,-0.7 -4.02,-0.67 -7.26,-0.67 -4.38,0 -8.65,1.46 -11.66,3.58 -0.29,0.21 -0.56,0.42 -0.87,0.66 -0.2,0.15 -0.24,0.21 -0.41,0.34 -1.24,1 -2.34,2.31 -3.29,3.58 -0.43,0.57 -0.83,1.19 -1.2,1.85 -2.11,3.78 -3.06,7.12 -3.69,11.54 -0.24,1.69 -0.44,3.73 -0.44,5.66z"/>
   <path class="fil0" d="M139.46 5.49c0,1.75 0.86,3.35 1.53,4.48 1.32,2.19 3.68,4.74 5.19,7.01 1.01,1.52 1.4,2.39 1.86,4.24 0.39,1.6 1,2.92 1.52,4.49 0.51,1.54 1.09,2.99 1.71,4.39 0.76,1.75 1.68,3.34 2.71,4.91 0.12,0.19 0.18,0.28 0.32,0.44 0.43,0.53 0.78,0.72 1.13,1.16 0.65,0.83 0.57,0.83 0.15,1.69 -0.37,0.77 -0.5,1.55 -0.7,2.43 -0.57,2.54 -1.12,3.99 -1.51,6.71 -0.73,5.03 0.06,10.95 1.82,15.17 0.74,1.78 1.84,3.52 3.22,4.85 1.67,1.61 4.19,2.33 6.06,0.46 0.67,-0.67 0.99,-1.57 1.21,-2.68 0.21,-1.06 0.29,-2.2 0.47,-3.34 0.07,-0.49 0.22,-1.04 0.33,-1.58 0.11,-0.54 0.05,-1.3 0.41,-1.57 0.08,0.35 0.51,1.11 0.69,1.45l1.42 2.85c0.13,0.26 0.24,0.44 0.35,0.71 0.32,0.74 0.76,1.3 1.25,1.95 0.34,0.45 0.59,0.77 0.96,1.18 1.23,1.39 1.82,1.97 3.16,3.31 0.71,0.71 1.5,1.36 2.28,1.99 1.61,1.3 1.88,1.55 3.4,3.08 0.63,0.65 1.69,1.57 2.57,1.77 -0.04,-0.34 -0.28,-0.39 -0.59,-0.7 -0.71,-0.72 -1.31,-0.95 -2.07,-1.9l-2.97 -3.66c-0.76,-1.01 -1.52,-2.07 -2.17,-3.16l-2.03 -3.31c-0.16,-0.27 -0.3,-0.53 -0.47,-0.82l-1.41 -2.55c-0.76,-1.52 -1.52,-2.91 -2.19,-4.51l-1.19 -2.78c-0.14,-0.32 -0.28,-0.63 -0.39,-0.98 -0.2,-0.66 -0.3,-1.49 -0.83,-1.84 -0.22,0.15 -0.35,0.4 -0.52,0.62 -0.19,0.23 -0.37,0.43 -0.56,0.66 -1.16,1.43 -2.14,2.74 -2.67,4.65 -0.35,1.25 -0.63,2.62 -0.81,4.07 -0.07,0.56 -0.41,4.17 -0.51,4.37 -0.22,0.46 -1.29,-0.28 -1.53,-0.46 -0.42,-0.31 -0.83,-0.86 -1.11,-1.32 -1.17,-1.86 -2.13,-5.15 -2.49,-7.27 -0.7,-4.07 -0.46,-8.84 0.63,-12.68 0.15,-0.53 0.35,-0.94 0.53,-1.45 0.65,-1.81 1.34,-3.29 1.34,-5.37 0,-0.22 -0.29,-0.84 -0.4,-1.04 -0.71,-1.29 -1.79,-0.99 -4.32,-6.12 -1.88,-3.81 -2.71,-9.42 -4.83,-13 -0.4,-0.66 -0.74,-1.18 -1.16,-1.81 -1.32,-2 -2.48,-3.29 -3.82,-5.1 -0.42,-0.57 -0.84,-1.16 -1.16,-1.81 -0.57,-1.13 -1.17,-2.43 -0.31,-3.65 0.15,-0.21 1.03,-0.61 1.3,-0.61 1.03,0 1.67,0.14 2.6,0.44 0.6,0.2 1.15,0.48 1.73,0.71 2.19,0.88 4.36,1.92 6.23,3.37l1.26 1.11c1.32,0.99 1.37,0.66 2.8,0.77 1.01,0.08 2.24,0.29 3.36,0.31 3.82,0.03 7.34,2.04 10.59,3.8 0.51,0.27 0.97,0.58 1.49,0.88l2.16 1.42c2.13,1.42 2.99,2.31 4.77,3.69l3.72 3.44 2.85 3.17c0.2,0.24 0.36,0.44 0.55,0.67 0.71,0.88 1.45,1.77 2.1,2.7 0.98,1.44 1.95,2.83 2.85,4.32 0.93,1.54 1.83,3.03 2.51,4.73 0.23,0.59 0.42,1.11 0.65,1.71 0.99,2.54 2.21,4.98 3.36,7.46l1.9 4.12c0.13,0.27 0.24,0.54 0.36,0.79l1.5 3.3c0.4,0.92 1.19,2.18 1.73,3.07 1.38,2.27 2.57,2.46 5.16,3.29 0.62,0.2 1.2,0.35 1.81,0.56 0.59,0.19 1.15,0.47 1.75,0.68 3.82,1.37 3.84,1.67 6.99,3.76l2.81 1.99c0.26,0.19 0.48,0.33 0.73,0.49 0.49,0.33 0.98,0.6 1.49,0.95 0.67,0.44 2.4,1.54 2.47,2.4 -4.58,0 -8.43,0.15 -12.37,1.74 -0.7,0.28 -3.02,0.58 -3.02,1.69 0,0.14 0.31,0.62 0.4,0.81 0.16,0.32 0.23,0.6 0.38,0.93 0.44,0.98 1.38,2.31 2.13,3.05 0.25,0.24 0.35,0.43 0.61,0.68l0.69 0.61c1.17,1 4.07,3.1 5.34,3.73l5.18 2.51c1.97,0.99 3.67,2.35 5.46,3.61l1.43 1.16c0.22,0.23 0.41,0.44 0.66,0.64 0.33,0.25 0.46,0.3 0.81,0.49 -0.01,-0.28 -0.48,-1.21 -0.61,-1.53 -0.41,-0.93 -0.77,-1.11 -1.43,-1.77 -1.34,-1.32 -1.85,-2.21 -3.05,-3.43 -0.22,-0.21 -0.28,-0.35 -0.49,-0.57 -0.18,-0.18 -0.35,-0.37 -0.54,-0.53l-1.74 -1.54c-0.41,-0.32 -0.75,-0.63 -1.18,-0.95 -2.09,-1.58 -4.33,-2.58 -6.53,-4.22 -1.21,-0.89 -1.22,-1.27 -1.96,-2.38 0.96,0 2.71,-0.52 3.51,-0.75 2.92,-0.86 4.76,-0.68 7.34,-1.28 0.89,-0.2 2.67,-0.88 3.4,-0.94 0,-1.06 -0.25,-0.92 -0.86,-1.66 -0.94,-1.16 -1.79,-2.42 -2.96,-3.36l-1.36 -1.16c-0.25,-0.19 -0.46,-0.37 -0.72,-0.57l-5.85 -4.36c-0.26,-0.18 -0.47,-0.31 -0.73,-0.5l-1.53 -0.98c-2.13,-1.38 -4.6,-2.19 -6.87,-3.34 -2.15,-1.09 -2.2,-0.21 -3.64,-2.77 -0.6,-1.08 -1.06,-2.3 -1.62,-3.4l-2.56 -5.13c-0.3,-0.58 -0.51,-1.17 -0.79,-1.73 -0.29,-0.59 -0.52,-1.16 -0.81,-1.78 -1.12,-2.31 -2,-4.76 -3.02,-7.12 -1.27,-2.92 -2.8,-5.47 -4.67,-8.05l-1.05 -1.47c-0.72,-0.97 -1.44,-1.96 -2.24,-2.86l-1.76 -2.06c-0.22,-0.25 -0.43,-0.4 -0.64,-0.65 -1.81,-2.28 -7.01,-6.6 -9.47,-8.29l-6.15 -4.06c-0.53,-0.31 -1.05,-0.66 -1.59,-0.93 -2.33,-1.15 -5.18,-1.87 -7.78,-2.43 -0.47,-0.1 -1.79,-0.16 -2.36,-0.15 -0.77,0 -1.66,-0.15 -2.43,-0.16 -0.75,0 -1.14,-0.42 -1.66,-0.86 -0.47,-0.41 -0.84,-0.77 -1.35,-1.16 -1.57,-1.24 -4.83,-2.79 -6.74,-3.47 -1.16,-0.42 -2.71,-0.84 -4.21,-0.91l-0.88 0c-0.78,0.04 -1.53,0.19 -2.18,0.51 -1.87,0.89 -3.02,2.9 -3.02,4.98z"/>
   <path class="fil0" d="M126.73 132.29c0,2.75 -1,4.78 -3.1,6.35 -4.48,3.34 -12.03,2.07 -16.76,-0.05l-2.47 -1.12 -2.36 4.73c0.28,0.15 0.48,0.29 0.75,0.47 5.28,3.55 12.03,5.33 18.65,4.38 3.59,-0.52 7.6,-1.99 10.19,-4.6 0.36,-0.37 0.73,-0.69 1.04,-1.09 0.76,-0.98 1.1,-1.27 1.78,-2.49 1.55,-2.78 1.81,-4.94 1.81,-8.25 0,-4.32 -2.29,-7.73 -5.55,-10.16 -1.55,-1.16 -6.65,-3.96 -8.91,-5.19l-5.05 -2.87c-0.17,-0.1 -0.29,-0.19 -0.45,-0.31l-1.33 -1.04c-0.33,-0.28 -0.49,-0.42 -0.8,-0.72 -0.31,-0.31 -0.47,-0.52 -0.76,-0.84 -1.47,-1.65 -2.11,-4.14 -1.53,-6.29 0.28,-1.02 0.74,-1.81 1.37,-2.6 0.35,-0.43 0.59,-0.67 1.03,-1.02 0.45,-0.36 0.65,-0.52 1.2,-0.79 0.46,-0.23 0.85,-0.43 1.39,-0.59 2.91,-0.85 6.57,-0.49 9.33,0.18 1.09,0.27 3.22,0.9 4.27,1.37 0.17,0.08 0.42,0.19 0.6,0.23 0.03,-0.32 0.87,-1.99 1.02,-2.34l1.04 -2.38c-1.61,-1.08 -3.6,-2.08 -5.63,-2.76 -1.03,-0.34 -2.11,-0.65 -3.32,-0.87 -4.1,-0.74 -8.2,-0.6 -12.09,0.8 -2.15,0.77 -3.11,1.59 -4.72,2.83 -0.32,0.25 -0.99,0.9 -1.27,1.24 -1.83,2.18 -2.73,4.09 -3.21,6.92 -0.15,0.86 -0.12,1.46 -0.18,2.42 -0.28,4.77 1.89,8.42 5.21,11.05 1.8,1.43 4.27,2.6 6.27,3.79 0.3,0.18 0.52,0.29 0.83,0.46 0.57,0.32 1.09,0.64 1.65,0.94l2.01 1.12c2.49,1.38 5.14,2.83 6.79,5.25 0.62,0.92 1.26,2.34 1.26,3.84z"/>
   <path class="fil0" d="M73.54 146.47c0,2.24 -0.53,3.41 -1.75,5.03l-1.05 1.09c-0.49,0.41 -0.44,0.46 -1.15,0.9 -0.45,0.28 -0.83,0.49 -1.36,0.7 -2.41,0.94 -3.99,0.61 -6.2,0.58 -0.55,-0.01 -1.04,-0.14 -1.52,-0.15l0 4.95c0.43,0.04 3.01,1.3 5.18,1.3 3.16,0 4.49,-0.46 7.09,-1.75 0.92,-0.46 2.31,-1.47 3.1,-2.15 2.77,-2.41 4.05,-4.1 6.07,-7.12 0.71,-1.06 1.35,-2.16 1.98,-3.28l1.75 -3.51c0.78,-1.68 1.78,-3.85 2.39,-5.54 1.21,-3.42 2.31,-6.25 3.32,-9.86l2.21 -8.31c0.93,-3.71 1.82,-8.09 2.54,-11.93 0.08,-0.44 0.18,-0.71 0.18,-1.19l-8.45 0c-0.31,0 -0.25,0.36 -0.32,0.98 -0.04,0.37 -0.09,0.77 -0.15,1.15 -0.1,0.77 -0.22,1.53 -0.34,2.32 -0.44,2.84 -0.97,6.14 -1.59,8.93 -0.33,1.5 -0.61,2.9 -0.97,4.36 -1.35,5.41 -2.42,9.19 -4.21,14.31 -0.12,0.36 -0.19,0.63 -0.33,0.97 -0.13,0.32 -0.23,0.77 -0.4,0.97 0,-5.47 -3.17,-13.93 -4.83,-19.56 -0.99,-3.35 -2.3,-7.16 -3.19,-10.37 -0.19,-0.68 -0.43,-1.37 -0.64,-2.11l-0.49 -1.56c-0.07,-0.21 -0.05,-0.39 -0.3,-0.39l-8.76 0c0,0.34 0.61,2.12 0.75,2.52 2.04,6.12 3.92,12.47 5.96,18.58l2.8 8.71c0.66,1.96 2.68,8.28 2.68,10.43z"/>
   <polygon class="fil0" points="191.73,146.54 217.72,146.54 217.72,139.84 200.5,139.84 200.5,91.9 191.73,91.9 "/>
   <path class="fil0" d="M228.69 146.54l1.37 0 0 -5.03 1.43 3.76c0.09,0.22 0.14,0.39 0.23,0.61 0.09,0.23 0.16,0.47 0.25,0.66l1.07 0 1.82 -4.95 0 4.95 1.38 0 0 -6.7c-2.52,0 -1.98,-0.27 -2.43,1l-1.38 3.42c-0.04,-0.39 -1.54,-3.82 -1.68,-4.42l-2.06 0 0 6.7z"/>
   <path class="fil0" d="M158.74 16.61c0.12,0.35 1.36,1.75 1.6,2.06 0.19,0.25 0.35,0.38 0.55,0.66 0.33,0.45 0.56,1.11 0.82,1.63l0.76 1.67c0.21,-0.05 0.51,-0.31 0.66,-0.47 0.72,-0.78 0.94,-1.76 0.94,-2.88 0,-0.17 -0.13,-0.23 -0.25,-0.43 -0.53,-0.9 -0.37,-1.15 -1.55,-1.96 -0.87,-0.6 -0.83,-0.75 -2.51,-0.47 -0.36,0.06 -0.7,0.17 -1.02,0.19z"/>
   <path class="fil0" d="M221.91 140.98c1.12,0 1.98,-0.17 1.98,0.23l0 5.33 1.45 0 0 -5.56 1.9 0 0 -1.14 -5.33 0 0 1.14z"/>
  </g>
 </g>
</svg>
