<?xml version="1.0" encoding="UTF-8"?>
<!DOCTYPE svg PUBLIC "-//W3C//DTD SVG 1.1//EN" "http://www.w3.org/Graphics/SVG/1.1/DTD/svg11.dtd">
<!-- Creator: CorelDRAW 2021 (64 Bit) -->
<svg xmlns="http://www.w3.org/2000/svg" xml:space="preserve" width="190px" height="190px" version="1.1" style="shape-rendering:geometricPrecision; text-rendering:geometricPrecision; image-rendering:optimizeQuality; fill-rule:evenodd; clip-rule:evenodd"
viewBox="0 0 15.09 15.09"
 xmlns:xlink="http://www.w3.org/1999/xlink"
 xmlns:xodm="http://www.corel.com/coreldraw/odm/2003">
 <defs>
  <style type="text/css">
   <![CDATA[
    .fil0 {fill:#FEFEFE}
   ]]>
  </style>
 </defs>
 <g id="Camada_x0020_1">
  <metadata id="CorelCorpID_0Corel-Layer"/>
  <path class="fil0" d="M2.17 0l10.75 0c1.2,0 2.17,0.98 2.17,2.17l0 10.75c0,1.2 -0.97,2.17 -2.17,2.17l-10.75 0c-1.19,0 -2.17,-0.97 -2.17,-2.17l0 -10.75c0,-1.19 0.98,-2.17 2.17,-2.17zm9.34 8.97c0,0.25 -0.06,0.45 -0.16,0.62 -0.11,0.17 -0.25,0.31 -0.43,0.42 -0.18,0.1 -0.37,0.18 -0.6,0.23 -0.22,0.05 -0.45,0.07 -0.68,0.07 -0.31,0 -0.59,-0.01 -0.84,-0.04 -0.25,-0.03 -0.49,-0.07 -0.71,-0.13l0 -0.91c0.26,0.11 0.52,0.19 0.78,0.24 0.26,0.04 0.5,0.07 0.73,0.07 0.27,0 0.47,-0.04 0.6,-0.13 0.13,-0.09 0.2,-0.2 0.2,-0.33 0,-0.07 -0.02,-0.12 -0.04,-0.18 -0.03,-0.05 -0.08,-0.1 -0.16,-0.15 -0.08,-0.05 -0.18,-0.1 -0.32,-0.15 -0.14,-0.05 -0.32,-0.11 -0.55,-0.17 -0.21,-0.06 -0.39,-0.13 -0.54,-0.2 -0.16,-0.07 -0.29,-0.16 -0.39,-0.26 -0.11,-0.1 -0.18,-0.22 -0.24,-0.35 -0.05,-0.13 -0.07,-0.28 -0.07,-0.46 0,-0.17 0.04,-0.34 0.11,-0.49 0.08,-0.15 0.2,-0.29 0.35,-0.4 0.16,-0.12 0.35,-0.21 0.58,-0.27 0.23,-0.07 0.5,-0.1 0.81,-0.1 0.26,0 0.5,0.01 0.7,0.04 0.21,0.03 0.39,0.06 0.55,0.09l0 0.83c-0.24,-0.08 -0.47,-0.13 -0.68,-0.16 -0.21,-0.04 -0.42,-0.05 -0.63,-0.05 -0.21,0 -0.38,0.03 -0.5,0.11 -0.13,0.07 -0.19,0.18 -0.19,0.31 0,0.07 0.01,0.12 0.03,0.17 0.03,0.05 0.08,0.1 0.15,0.15 0.08,0.04 0.18,0.09 0.31,0.15 0.13,0.05 0.31,0.1 0.52,0.16 0.25,0.07 0.45,0.15 0.62,0.23 0.17,0.08 0.3,0.17 0.4,0.27 0.1,0.09 0.18,0.21 0.22,0.34 0.04,0.12 0.07,0.27 0.07,0.43zm-5.49 -2.39c0,-0.14 -0.03,-0.27 -0.07,-0.39 -0.05,-0.12 -0.12,-0.22 -0.21,-0.3 -0.09,-0.08 -0.21,-0.15 -0.35,-0.19 -0.14,-0.04 -0.31,-0.07 -0.51,-0.07l-0.53 0 0 1.99 0.57 0c0.18,0 0.33,-0.02 0.47,-0.07 0.13,-0.05 0.25,-0.12 0.34,-0.21 0.1,-0.09 0.17,-0.2 0.21,-0.33 0.05,-0.13 0.08,-0.27 0.08,-0.43zm1.07 -0.07c0,0.29 -0.05,0.55 -0.14,0.79 -0.09,0.24 -0.23,0.44 -0.42,0.62 -0.19,0.17 -0.42,0.31 -0.7,0.41 -0.27,0.09 -0.6,0.14 -0.96,0.14l-0.52 0 0 1.75 -1.03 0 0 -5.44 1.59 0c0.35,0 0.66,0.04 0.93,0.12 0.28,0.07 0.5,0.18 0.69,0.33 0.18,0.15 0.32,0.33 0.42,0.54 0.09,0.22 0.14,0.46 0.14,0.74z"/>
 </g>
</svg>
