<?xml version="1.0" encoding="UTF-8"?>
<!DOCTYPE svg PUBLIC "-//W3C//DTD SVG 1.1//EN" "http://www.w3.org/Graphics/SVG/1.1/DTD/svg11.dtd">
<!-- Creator: CorelDRAW 2021 (64 Bit) -->
<svg xmlns="http://www.w3.org/2000/svg" xml:space="preserve" width="265px" height="138px" version="1.1" style="shape-rendering:geometricPrecision; text-rendering:geometricPrecision; image-rendering:optimizeQuality; fill-rule:evenodd; clip-rule:evenodd"
viewBox="0 0 42.12 21.92"
 xmlns:xlink="http://www.w3.org/1999/xlink"
 xmlns:xodm="http://www.corel.com/coreldraw/odm/2003">
 <defs>
  <style type="text/css">
   <![CDATA[
    .fil0 {fill:white}
   ]]>
  </style>
 </defs>
 <g id="Camada_x0020_1">
  <metadata id="CorelCorpID_0Corel-Layer"/>
  <path class="fil0" d="M21.06 0c11.63,0 21.06,4.91 21.06,10.96 0,6.06 -9.43,10.96 -21.06,10.96 -11.63,0 -21.06,-4.9 -21.06,-10.96 0,-6.05 9.43,-10.96 21.06,-10.96zm8.07 12.26l0.73 -4.33 1.87 0c1.01,0 1.73,0.44 1.73,1.3 -0.14,2.45 -1.3,2.89 -2.59,3.03l-1.73 0 -0.01 0zm-3.89 5.19l2.31 -11.68 5.34 0c2.3,0.14 3.46,1.3 3.46,3.32 0,3.46 -2.74,5.48 -5.2,5.33l-2.59 0 -0.58 3.03 -2.74 0zm-8.76 -3.03l2.31 -11.68 2.74 0 -0.58 3.03 2.6 0c2.31,0.14 3.17,1.3 2.89,2.74l-1.01 5.91 -2.89 0 1.01 -5.33c0.14,-0.72 0.14,-1.16 -0.86,-1.16l-2.17 0 -1.3 6.49 -2.74 0zm-6.67 -2.16l0.72 -4.33 1.87 0c1.01,0 1.73,0.44 1.73,1.3 -0.14,2.45 -1.29,2.89 -2.59,3.03l-1.73 0 0 0zm-3.9 5.19l2.31 -11.68 5.34 0c2.31,0.14 3.46,1.3 3.46,3.32 0,3.46 -2.74,5.48 -5.19,5.33l-2.6 0 -0.58 3.03 -2.74 0z"/>
 </g>
</svg>
