<?xml version="1.0" encoding="UTF-8"?>
<!DOCTYPE svg PUBLIC "-//W3C//DTD SVG 1.1//EN" "http://www.w3.org/Graphics/SVG/1.1/DTD/svg11.dtd">
<!-- Creator: CorelDRAW 2021 (64 Bit) -->
<svg xmlns="http://www.w3.org/2000/svg" xml:space="preserve" width="270px" height="194px" version="1.1" style="shape-rendering:geometricPrecision; text-rendering:geometricPrecision; image-rendering:optimizeQuality; fill-rule:evenodd; clip-rule:evenodd"
viewBox="0 0 69.5 49.86"
 xmlns:xlink="http://www.w3.org/1999/xlink"
 xmlns:xodm="http://www.corel.com/coreldraw/odm/2003">
 <defs>
  <style type="text/css">
   <![CDATA[
    .fil0 {fill:white;fill-rule:nonzero}
   ]]>
  </style>
 </defs>
 <g id="Camada_x0020_1">
  <metadata id="CorelCorpID_0Corel-Layer"/>
  <g id="_2329281350832">
   <path class="fil0" d="M44.42 39.76c0.86,-0.47 1.88,-0.5 2.84,-0.52 1.03,0.01 2.17,0.1 3.02,0.76 0.53,0.41 0.75,1.09 0.76,1.74 -0.33,0 -0.66,0 -0.99,0 -0.12,-0.64 -0.4,-1.32 -1.07,-1.56 -1.11,-0.42 -2.39,-0.4 -3.52,-0.07 -0.91,0.26 -1.24,1.57 -0.54,2.21 0.5,0.4 1.17,0.45 1.77,0.59 1.24,0.26 2.56,0.3 3.71,0.87 1.23,0.62 1.19,2.59 0.1,3.32 -0.9,0.62 -2.05,0.69 -3.1,0.7 -1.16,-0.02 -2.42,-0.13 -3.35,-0.87 -0.6,-0.48 -0.79,-1.27 -0.83,-2 0.34,-0.02 0.68,-0.02 1.02,-0.02 0.07,0.77 0.43,1.58 1.21,1.87 1.21,0.47 2.6,0.47 3.84,0.09 0.86,-0.24 1.2,-1.34 0.8,-2.09 -0.18,-0.34 -0.55,-0.53 -0.91,-0.63 -1.5,-0.4 -3.1,-0.42 -4.57,-0.97 -1.39,-0.51 -1.44,-2.72 -0.19,-3.42z"/>
   <g>
    <path class="fil0" d="M55.37 40.04c-1.12,0.26 -2.17,1.04 -2.54,2.17 -0.38,1.21 -0.25,2.67 0.63,3.64 0.77,0.88 1.96,1.28 3.11,1.29 1.26,0.04 2.65,-0.32 3.48,-1.33 1.14,-1.46 1.01,-3.9 -0.52,-5.05 -1.15,-0.94 -2.76,-1.02 -4.16,-0.72l0 0zm-1.57 -0.19c1.15,-0.59 2.48,-0.68 3.75,-0.57 1.2,0.1 2.43,0.54 3.24,1.46 1.01,1.09 1.19,2.74 0.82,4.13 -0.21,0.77 -0.76,1.39 -1.34,1.91 0.46,0.34 0.94,0.65 1.4,0.99 -0.2,0.2 -0.42,0.39 -0.63,0.58 -0.49,-0.32 -0.94,-0.69 -1.45,-0.98 -0.39,0 -0.75,0.24 -1.14,0.29 -1.08,0.2 -2.21,0.21 -3.29,0 -1.18,-0.24 -2.31,-0.9 -2.95,-1.94 -0.63,-1.02 -0.71,-2.31 -0.42,-3.45 0.26,-1.05 1.04,-1.94 2.01,-2.42z"/>
   </g>
   <path class="fil0" d="M62.45 39.45c0.32,-0.01 0.64,-0.02 0.96,-0.03 0.03,2.5 0.01,4.99 0.01,7.48 2.03,0.04 4.05,-0.01 6.08,0.03 -0.01,0.22 -0.01,0.44 -0.01,0.66 -2.34,0 -4.69,0.01 -7.04,0 0,-2.72 0,-5.43 0,-8.14z"/>
   <path class="fil0" d="M37.76 2.44c2.21,-0.47 4.59,-0.41 6.72,0.39 1.48,0.56 2.79,1.54 3.78,2.77 0.47,0.59 0.53,1.38 0.56,2.11 0.02,1.72 -0.33,3.43 -0.77,5.09 -0.85,3.07 -2.14,6.01 -3.76,8.75 -0.16,0.27 -0.33,0.53 -0.52,0.78 -0.02,-0.08 -0.05,-0.23 -0.06,-0.3 0.2,-0.53 0.49,-1.03 0.61,-1.59 0.4,-1.58 0.06,-3.21 -0.09,-4.8 -0.15,-1.5 0.36,-2.96 0.35,-4.46 0.06,-0.74 -0.23,-1.43 -0.51,-2.09 -1.02,-2.28 -2.65,-4.31 -4.73,-5.7 -0.51,-0.35 -1.07,-0.6 -1.58,-0.95z"/>
   <path class="fil0" d="M31.61 2.65c2.72,-0.34 5.58,0.41 7.75,2.11 1.79,1.41 3.2,3.33 3.96,5.48 -1.26,-0.04 -2.7,-0.09 -3.72,0.78 -0.93,0.79 -1.05,2.12 -0.84,3.25 0.48,2.66 2.06,4.93 3.22,7.33 0.31,0.56 0.72,1.05 1.12,1.56 -0.47,0.24 -1,0.46 -1.27,0.95 -0.46,0.75 -0.3,1.67 -0.41,2.51 -0.27,2.34 -0.54,4.69 -0.92,7.02 -0.18,1.11 -0.65,2.3 -1.71,2.86 -1.08,0.55 -2.33,0.89 -3.55,0.7 -1.15,-0.2 -1.88,-1.27 -2.2,-2.32 -0.24,-0.88 -0.27,-1.8 -0.34,-2.7 -0.11,-2.18 -0.11,-4.37 -0.06,-6.55 0.05,-0.86 -0.39,-1.74 -1.15,-2.16 -0.37,-0.21 -0.8,-0.23 -1.21,-0.27 0.32,-1.6 1.3,-2.99 1.64,-4.59 0.43,-1.98 0.19,-4.05 -0.25,-6.01 -0.22,-0.97 -0.96,-1.84 -1.95,-2.07 -1.53,-0.39 -3.06,0.21 -4.43,0.84 0.18,-2.21 0.77,-4.48 2.12,-6.27 1,-1.34 2.55,-2.23 4.2,-2.45z"/>
   <path class="fil0" d="M20 2.84c2.42,-0.47 4.91,0.02 7.24,0.73 -1.03,1.13 -1.83,2.46 -2.29,3.92 -0.64,1.94 -0.93,4.01 -0.78,6.05 0.09,1.44 0.05,2.88 -0.15,4.31 -0.25,1.86 0.5,3.78 1.88,5.04 -0.94,1.1 -1.94,2.15 -2.85,3.28 -0.4,0.47 -0.95,1.04 -1.64,0.9 -0.8,-0.23 -1.31,-0.97 -1.76,-1.63 -1.21,-1.93 -1.94,-4.12 -2.6,-6.29 -0.75,-2.56 -1.38,-5.17 -1.75,-7.82 -0.18,-2.02 -0.06,-4.19 0.97,-5.98 0.77,-1.36 2.21,-2.23 3.73,-2.51z"/>
   <g>
    <path class="fil0" d="M40.71 12.14c-0.3,0.25 0.02,0.61 0.28,0.73 0.62,0.36 1.47,-0.15 1.49,-0.85 -0.56,-0.26 -1.26,-0.24 -1.77,0.12l0 0zm-0.33 -0.33c0.89,-0.63 2.06,-0.49 3.09,-0.43 -0.04,1.43 -0.48,2.83 -0.34,4.26 0.13,1.78 0.65,3.69 -0.19,5.37 -1.12,-2.23 -2.58,-4.37 -3.08,-6.86 -0.15,-0.79 -0.18,-1.79 0.52,-2.34z"/>
   </g>
   <g>
    <path class="fil0" d="M28.4 12.19c-0.17,0.06 -0.35,0.17 -0.32,0.38 0.13,0.71 1.08,1.14 1.68,0.7 0.26,-0.15 0.54,-0.56 0.23,-0.81 -0.43,-0.35 -1.06,-0.42 -1.59,-0.27l0 0zm-3.15 0.54c1.12,-0.72 2.43,-1.29 3.79,-1.21 0.7,0.03 1.35,0.52 1.51,1.21 0.62,2.46 0.81,5.18 -0.37,7.5 -0.41,0.9 -0.74,1.83 -1.03,2.77 -1.96,0.02 -3.63,-1.64 -3.98,-3.51 -0.24,-1.05 0.07,-2.11 0.11,-3.17 0.08,-1.2 0,-2.39 -0.03,-3.59z"/>
   </g>
   <path class="fil0" d="M42.93 24.51c0.29,-0.21 0.7,-0.41 1.04,-0.18 1.42,0.75 3.08,0.39 4.6,0.2 -0.93,0.9 -2.21,1.33 -3.48,1.46 -0.83,0.1 -1.7,0.13 -2.51,-0.14 0.01,-0.46 -0.02,-1 0.35,-1.34z"/>
   <path class="fil0" d="M28.55 26.26c0.82,-0.44 1.15,-1.41 1.91,-1.91 0.84,-0.12 1.45,1.12 0.82,1.7 -1.24,1.67 -3.7,1.99 -5.48,1.08 0.88,-0.4 1.9,-0.37 2.75,-0.87z"/>
   <g>
    <path class="fil0" d="M0.83 40.1c-0.01,1.13 -0.01,2.26 0,3.39 1.21,0 2.42,0.02 3.62,-0.01 0.68,-0.02 1.47,-0.25 1.75,-0.93 0.22,-0.6 0.19,-1.36 -0.23,-1.88 -0.4,-0.48 -1.07,-0.57 -1.65,-0.57 -1.17,0 -2.33,0 -3.49,0l0 0zm-0.82 -0.65c1.53,0 3.05,-0.02 4.58,-0.02 0.71,-0.01 1.48,0.12 2.02,0.6 0.75,0.64 0.88,1.78 0.56,2.66 -0.38,0.96 -1.46,1.41 -2.43,1.43 -1.31,0.02 -2.62,0 -3.92,0.01 -0.02,1.16 0.01,2.31 0,3.47 -0.27,0 -0.54,0 -0.81,0 -0.01,-2.72 -0.01,-5.44 0,-8.15z"/>
   </g>
   <path class="fil0" d="M21.79 40.49l0.84 0c0,0.59 0,1.17 0.01,1.75 0.47,0.01 0.95,0.01 1.43,0 0,0.19 0.01,0.38 0.02,0.57 -0.48,0.01 -0.96,0.01 -1.45,-0.01 -0.02,1.15 0,2.29 -0.01,3.43 0.01,0.26 -0.02,0.61 0.25,0.76 0.37,0.18 0.8,0.11 1.2,0.09 0,0.18 0,0.36 0,0.55 -0.61,0.07 -1.27,0.11 -1.84,-0.17 -0.34,-0.18 -0.46,-0.59 -0.45,-0.95 -0.01,-1.24 0,-2.47 0,-3.71 -0.36,0 -0.72,0 -1.08,0 0,-0.19 0,-0.37 0.01,-0.56 0.35,0.01 0.71,0 1.06,-0.01 0.01,-0.58 0.01,-1.16 0.01,-1.74z"/>
   <g>
    <path class="fil0" d="M9.92 42.69c-0.78,0.09 -1.55,0.59 -1.81,1.36 -0.29,0.86 -0.17,1.93 0.53,2.57 0.56,0.51 1.35,0.62 2.07,0.59 0.66,-0.03 1.35,-0.2 1.82,-0.69 0.51,-0.5 0.6,-1.28 0.53,-1.96 -0.05,-0.59 -0.33,-1.19 -0.85,-1.5 -0.68,-0.41 -1.52,-0.46 -2.29,-0.37l0 0zm-0.41 -0.54c1.07,-0.16 2.23,-0.12 3.19,0.42 1.43,0.81 1.63,2.98 0.63,4.2 -0.86,0.95 -2.26,1.08 -3.47,0.98 -0.98,-0.06 -1.98,-0.54 -2.44,-1.44 -0.42,-0.83 -0.43,-1.86 -0.03,-2.7 0.39,-0.82 1.25,-1.32 2.12,-1.46z"/>
   </g>
   <path class="fil0" d="M15.08 42.54c0.56,-0.35 1.24,-0.41 1.88,-0.45 0.9,-0.02 1.88,-0.03 2.67,0.49 0.43,0.27 0.59,0.79 0.65,1.27 -0.29,0.01 -0.59,0.01 -0.88,0.01 -0.06,-0.4 -0.23,-0.82 -0.63,-0.99 -0.72,-0.33 -1.55,-0.29 -2.32,-0.18 -0.47,0.07 -1.05,0.34 -1.07,0.89 -0.04,0.4 0.32,0.67 0.66,0.76 1.01,0.25 2.07,0.23 3.09,0.44 0.46,0.11 0.95,0.29 1.2,0.71 0.36,0.6 0.14,1.47 -0.47,1.82 -0.75,0.44 -1.64,0.46 -2.48,0.46 -0.82,-0.03 -1.71,-0.04 -2.41,-0.53 -0.43,-0.3 -0.57,-0.82 -0.65,-1.31 0.3,-0.01 0.61,0 0.91,0 0.02,0.67 0.57,1.14 1.2,1.22 0.91,0.13 1.91,0.2 2.76,-0.22 0.58,-0.3 0.53,-1.24 -0.09,-1.46 -1.26,-0.37 -2.63,-0.25 -3.87,-0.7 -0.89,-0.36 -0.91,-1.73 -0.15,-2.23z"/>
   <g>
    <path class="fil0" d="M27.3 42.71c-0.6,0.1 -1.21,0.39 -1.54,0.92 -0.39,0.63 -0.4,1.45 -0.14,2.13 0.28,0.71 1.04,1.07 1.76,1.14 0.91,0.13 1.97,0.01 2.62,-0.7 0.72,-0.89 0.64,-2.42 -0.33,-3.1 -0.69,-0.47 -1.57,-0.49 -2.37,-0.39l0 0zm-0.7 -0.49c0.87,-0.2 1.79,-0.21 2.65,0.05 0.49,0.13 0.83,0.52 1.19,0.84 0.02,-0.29 0.03,-0.57 0.04,-0.86 0.27,0.01 0.54,0 0.81,0 0.07,1.64 0.01,3.3 0.03,4.95 0.02,0.68 -0.11,1.43 -0.64,1.91 -0.7,0.63 -1.7,0.73 -2.6,0.75 -0.8,-0.02 -1.65,-0.03 -2.37,-0.41 -0.51,-0.27 -0.75,-0.82 -0.85,-1.36 0.27,0 0.54,-0.01 0.82,-0.01 0.17,0.35 0.31,0.78 0.69,0.97 0.57,0.27 1.23,0.28 1.85,0.27 0.69,-0.02 1.49,-0.15 1.92,-0.75 0.42,-0.58 0.33,-1.33 0.33,-2 -0.87,0.88 -2.18,1.04 -3.36,0.9 -0.73,-0.08 -1.5,-0.34 -1.98,-0.94 -0.59,-0.72 -0.66,-1.74 -0.44,-2.61 0.22,-0.89 1.04,-1.51 1.91,-1.7z"/>
   </g>
   <path class="fil0" d="M33.88 42.3c0.6,-0.27 1.29,-0.22 1.93,-0.22 0,0.23 0.01,0.46 0.01,0.68 -0.67,-0.01 -1.41,-0.09 -1.99,0.32 -0.56,0.39 -0.75,1.1 -0.76,1.75 -0.01,0.92 0.01,1.84 0,2.77 -0.28,0 -0.55,-0.01 -0.83,-0.01 -0.02,-1.78 -0.03,-3.56 0,-5.34 0.27,0.01 0.55,0.01 0.82,0 0.01,0.31 0.01,0.62 0.02,0.92 0.2,-0.33 0.42,-0.7 0.8,-0.87z"/>
   <g>
    <path class="fil0" d="M37.61 42.97c-0.61,0.31 -0.89,0.98 -1.03,1.61 1.69,0.01 3.38,0.01 5.07,0 -0.05,-0.39 -0.17,-0.78 -0.43,-1.07 -0.86,-1.04 -2.48,-1.15 -3.61,-0.54l0 0zm-1.51 0.44c0.56,-0.91 1.66,-1.29 2.68,-1.32 1.04,-0.05 2.22,0.09 2.98,0.88 0.56,0.54 0.75,1.35 0.78,2.11 -1.99,0.02 -3.98,-0.02 -5.97,0.01 0.04,0.54 0.21,1.1 0.62,1.47 0.78,0.71 1.94,0.77 2.92,0.55 0.65,-0.14 1.15,-0.64 1.39,-1.25 0.31,0 0.61,0 0.91,0 -0.26,0.91 -1.05,1.56 -1.95,1.77 -1.22,0.28 -2.63,0.23 -3.68,-0.52 -1.15,-0.81 -1.37,-2.53 -0.68,-3.7z"/>
   </g>
   <g>
    <path class="fil0" d="M35.85 1.78c-0.22,0.04 -0.42,-0.06 -0.63,-0.08 -2.35,-0.48 -4.94,-0.29 -6.98,1.07 -2.44,-0.88 -5.07,-1.41 -7.67,-1.14 -1.94,0.2 -3.88,1.1 -4.99,2.75 -1.4,2.05 -1.59,4.68 -1.37,7.09 0.45,3.2 1.23,6.35 2.22,9.42 0.66,1.91 1.38,3.84 2.54,5.51 0.59,0.83 1.38,1.65 2.43,1.78 0.94,0.12 1.79,-0.46 2.37,-1.15 0.99,-1.2 2.02,-2.37 3.08,-3.5 0.69,0.34 1.45,0.54 2.22,0.6 -0.42,0.49 -0.76,1.14 -1.43,1.33 -0.89,0.35 -1.94,0.3 -2.73,0.89 -0.45,0.33 -0.47,1.04 -0.07,1.41 0.74,0.72 1.83,0.87 2.81,0.96 1.4,0.1 2.8,-0.37 3.86,-1.28 -0.01,2.22 0,4.44 0.25,6.64 0.13,1.29 0.68,2.57 1.66,3.44 0.93,0.8 2.25,0.97 3.42,0.77 1.15,-0.22 2.33,-0.57 3.23,-1.35 0.96,-0.84 1.37,-2.12 1.56,-3.34 0.34,-2.19 0.6,-4.39 0.85,-6.59 2.46,0.42 5.25,-0.05 7.08,-1.85 0.4,-0.37 0.77,-1.01 0.38,-1.51 -0.4,-0.46 -1.08,-0.34 -1.6,-0.23 -1.27,0.22 -2.64,0.48 -3.87,-0.04 2.19,-3.45 3.91,-7.22 4.87,-11.2 0.35,-1.51 0.62,-3.06 0.57,-4.61 -0.04,-0.87 -0.16,-1.8 -0.69,-2.52 -1.32,-1.74 -3.23,-3.01 -5.33,-3.57 -2.63,-0.71 -5.45,-0.5 -8.04,0.3l0 0zm0.01 -1.12c2.37,-0.62 4.88,-0.89 7.31,-0.43 2.21,0.4 4.31,1.44 5.9,3.02 0.71,0.71 1.43,1.48 1.69,2.47 0.48,1.71 0.29,3.51 0,5.23 -0.75,4.13 -2.38,8.06 -4.47,11.68 0.94,0 1.84,-0.3 2.78,-0.36 0.91,-0.06 1.88,0.5 2.1,1.43 0.28,0.99 -0.34,1.94 -1.07,2.55 -1.84,1.65 -4.41,2.19 -6.82,2.05 -0.15,2.49 -0.2,5.08 -1.25,7.4 -0.47,1.03 -1.21,1.95 -2.18,2.54 -0.93,0.58 -2.01,0.86 -3.07,1.06 -1.17,0.21 -2.45,0.1 -3.45,-0.57 -0.93,-0.59 -1.51,-1.59 -1.85,-2.61 -0.82,-2.15 -0.74,-4.49 -0.83,-6.74 -1.64,0.65 -3.5,0.65 -5.16,0.08 -0.58,-0.2 -1.09,-0.55 -1.54,-0.98 -0.85,0.71 -2.02,1.07 -3.12,0.76 -1.38,-0.37 -2.37,-1.54 -3.1,-2.71 -1.28,-2.1 -2.09,-4.45 -2.8,-6.8 -0.78,-2.71 -1.44,-5.47 -1.8,-8.27 -0.2,-2.49 0.02,-5.15 1.36,-7.33 1.08,-1.78 2.98,-2.96 5,-3.36 2.87,-0.58 5.83,-0.02 8.59,0.84 0.89,-0.4 1.78,-0.84 2.75,-1 1.66,-0.33 3.37,-0.18 5.03,0.05z"/>
   </g>
  </g>
 </g>
</svg>
