<?xml version="1.0" encoding="UTF-8"?>
<!DOCTYPE svg PUBLIC "-//W3C//DTD SVG 1.1//EN" "http://www.w3.org/Graphics/SVG/1.1/DTD/svg11.dtd">
<!-- Creator: CorelDRAW 2021 (64 Bit) -->
<svg xmlns="http://www.w3.org/2000/svg" xml:space="preserve" width="169px" height="194px" version="1.1" style="shape-rendering:geometricPrecision; text-rendering:geometricPrecision; image-rendering:optimizeQuality; fill-rule:evenodd; clip-rule:evenodd"
viewBox="0 0 13.42 15.41"
 xmlns:xlink="http://www.w3.org/1999/xlink"
 xmlns:xodm="http://www.corel.com/coreldraw/odm/2003">
 <defs>
  <style type="text/css">
   <![CDATA[
    .fil0 {fill:white}
   ]]>
  </style>
 </defs>
 <g id="Camada_x0020_1">
  <metadata id="CorelCorpID_0Corel-Layer"/>
  <g id="_2329342078112">
   <path class="fil0" d="M8.25 8.63c0.27,0 1.09,-0.12 1.39,-0.18 0.14,-0.03 0.3,-0.08 0.43,-0.09l0.11 0.56c0.1,0.63 0.2,2.41 -0.69,2.41 -0.43,0 -0.75,-0.13 -1.1,-0.32l-0.4 -0.26c-0.21,-0.16 -0.54,-0.4 -0.73,-0.58 -0.05,-0.05 -0.07,-0.08 -0.12,-0.11l0.29 -0.34c0.05,-0.05 0.1,-0.12 0.15,-0.17l0.41 -0.53c0.05,-0.07 0.24,-0.31 0.26,-0.39zm-4.25 2.7c-0.38,0 -0.53,-0.17 -0.66,-0.47 -0.3,-0.71 -0.11,-1.81 0.05,-2.48 0.32,0.07 0.63,0.12 0.98,0.17 0.16,0.03 0.33,0.05 0.51,0.06 0.37,0.03 0.25,-0.03 0.65,0.5 0.23,0.31 0.35,0.44 0.59,0.71l0.2 0.24 -0.48 0.42c-0.45,0.37 -1.24,0.85 -1.84,0.85zm2.7 -1.71c-0.03,-0.1 -0.12,-0.14 -0.18,-0.22l-0.19 -0.23c-0.06,-0.07 -0.34,-0.41 -0.36,-0.48l1.53 0c-0.12,0.18 -0.51,0.65 -0.67,0.83 -0.07,0.07 -0.03,0.09 -0.13,0.1zm-2.74 -2.96c0.05,0.04 0.32,0.57 0.39,0.68l0.4 0.66c-0.17,0 -0.46,-0.05 -0.61,-0.08 -0.21,-0.03 -0.39,-0.06 -0.58,-0.11 0.01,-0.12 0.23,-0.7 0.29,-0.85 0.03,-0.08 0.1,-0.22 0.11,-0.3zm4.73 1.34l0.58 -1.01c0.04,-0.06 0.06,-0.1 0.1,-0.17 0.04,-0.08 0.04,-0.14 0.12,-0.16 0,0.07 0.07,0.21 0.1,0.28 0.04,0.1 0.07,0.18 0.11,0.28l0.21 0.57 -0.6 0.12c-0.11,0.01 -0.57,0.07 -0.62,0.09zm-5.72 -0.33c-0.53,-0.13 -1.27,-0.47 -1.72,-0.8 -0.1,-0.07 -0.18,-0.16 -0.27,-0.23 -0.12,-0.1 -0.38,-0.44 -0.38,-0.63 0,-0.41 0.23,-0.61 0.51,-0.85 0.37,-0.31 1.53,-0.86 1.88,-0.87 0.01,0.13 0.24,0.72 0.3,0.86l0.33 0.82 -0.65 1.7zm7.48 -3.38c0.1,0.03 0.26,0.08 0.37,0.12 0.13,0.05 0.24,0.09 0.36,0.14 0.37,0.14 0.98,0.46 1.26,0.73 0.47,0.49 0.55,0.8 0.01,1.35 -0.36,0.36 -1.11,0.72 -1.6,0.89 -0.12,0.04 -0.28,0.08 -0.38,0.13 -0.03,-0.13 -0.09,-0.31 -0.14,-0.43l-0.42 -1.04c-0.03,-0.05 -0.09,-0.14 -0.1,-0.2 -0.01,-0.06 0.04,-0.14 0.07,-0.2 0.15,-0.36 0.3,-0.67 0.42,-1.05 0.04,-0.13 0.1,-0.32 0.15,-0.44zm-3.5 3.82c-0.16,0 -1.32,-0.01 -1.41,-0.04 -0.09,-0.03 -0.02,0.03 -0.08,-0.06 -0.26,-0.36 -0.59,-0.94 -0.81,-1.33 -0.03,-0.05 -0.06,-0.11 -0.09,-0.16 -0.32,-0.67 -0.37,-0.38 0,-1.1l0.93 -1.57c0.41,0 0.78,-0.04 1.21,-0.04 0.43,0 0.82,0.04 1.24,0.04 0,0.02 0.76,1.25 0.89,1.5 0.41,0.82 0.4,0.42 -0.01,1.25 -0.21,0.42 -0.58,0.96 -0.81,1.35 -0.12,0.21 -0.23,0.09 -0.59,0.14 -0.14,0.02 -0.3,0.02 -0.47,0.02zm1.74 -4.17c0.27,0.02 0.91,0.15 1.17,0.21 -0.01,0.13 -0.22,0.67 -0.29,0.84 -0.03,0.09 -0.07,0.19 -0.1,0.27 -0.06,-0.04 -0.07,-0.08 -0.1,-0.16l-0.29 -0.5c-0.12,-0.23 -0.27,-0.44 -0.39,-0.66zm-4.73 1.32c-0.03,-0.11 -0.07,-0.18 -0.11,-0.27l-0.29 -0.84c0.09,-0.05 1.01,-0.21 1.17,-0.21 -0.15,0.28 -0.42,0.66 -0.58,0.99 -0.03,0.07 -0.15,0.29 -0.19,0.33zm1.99 -2.01c0.08,-0.16 0.34,-0.44 0.46,-0.59 0.04,-0.05 0.05,-0.06 0.1,-0.11 0.08,-0.08 0.11,-0.16 0.21,-0.22 0.08,0.05 0.73,0.81 0.76,0.92 -0.12,0 -0.15,-0.02 -0.28,-0.02l-0.98 0c-0.13,0 -0.15,0.02 -0.27,0.02zm1.19 -1.36c0.01,-0.02 0.19,-0.19 0.23,-0.22 0.49,-0.43 1.88,-1.47 2.48,-0.94 0.07,0.06 0.17,0.21 0.21,0.31 0.3,0.72 0.14,1.83 -0.03,2.54 -0.13,-0.06 -1.25,-0.23 -1.44,-0.25 -0.42,-0.03 -0.26,0.05 -0.67,-0.49l-0.38 -0.48c-0.03,-0.03 -0.04,-0.04 -0.07,-0.07l-0.2 -0.24c-0.11,-0.12 -0.06,-0.04 -0.13,-0.16zm-3.75 1.67c-0.06,-0.27 -0.11,-0.51 -0.15,-0.81 -0.07,-0.48 -0.16,-2.14 0.63,-2.14 0.59,0 1,0.2 1.45,0.5 0.32,0.22 0.45,0.31 0.75,0.57 0.04,0.04 0.06,0.05 0.11,0.1 0.05,0.04 0.07,0.07 0.12,0.11 -0.07,0.1 -0.18,0.19 -0.26,0.3l-0.51 0.62c-0.44,0.59 -0.27,0.46 -0.64,0.51 -0.37,0.05 -0.9,0.12 -1.25,0.2 -0.08,0.02 -0.15,0.04 -0.25,0.04zm-0.8 -1.55c0,0.68 0.1,1.15 0.23,1.72 -0.15,0 -0.78,0.25 -0.93,0.32 -0.88,0.36 -2.33,1.28 -1.76,2.42 0.11,0.22 0.1,0.19 0.24,0.38 0.15,0.2 0.46,0.46 0.68,0.6 0.25,0.16 0.55,0.34 0.83,0.45 0.15,0.06 0.78,0.32 0.94,0.33 -0.04,0.1 -0.13,0.6 -0.15,0.75 -0.14,0.86 -0.15,2.22 0.61,2.74 0.85,0.58 2.23,-0.21 2.9,-0.76 0.12,-0.09 0.47,-0.38 0.54,-0.49l0.79 0.66c0.78,0.59 2.23,1.33 2.96,0.24 0.5,-0.75 0.4,-1.88 0.25,-2.78 -0.02,-0.11 -0.07,-0.27 -0.08,-0.38 0.12,-0.06 0.32,-0.11 0.47,-0.16 0.16,-0.05 0.3,-0.11 0.44,-0.18 0.63,-0.27 1.45,-0.77 1.74,-1.4 0.29,-0.62 0.04,-1.12 -0.39,-1.56 -0.07,-0.07 -0.11,-0.09 -0.17,-0.15 -0.28,-0.27 -0.83,-0.55 -1.18,-0.7 -0.16,-0.07 -0.3,-0.12 -0.46,-0.18 -0.12,-0.04 -0.38,-0.14 -0.49,-0.15 0.08,-0.18 0.17,-0.91 0.2,-1.18l0.03 -0.43c0,-0.86 -0.27,-2.12 -1.32,-2.12 -0.64,0 -1.2,0.26 -1.64,0.56 -0.28,0.18 -0.78,0.54 -1.01,0.78 -0.05,0.05 -0.08,0.09 -0.14,0.13l-0.37 -0.32c-0.54,-0.46 -1.28,-0.97 -2,-1.1 -1.31,-0.25 -1.76,0.81 -1.76,1.96z"/>
   <path class="fil0" d="M5.51 5.84c0,0.31 0.02,0.58 0.23,0.84 0.5,0.6 1.3,0.64 1.81,0.12 0.81,-0.8 0.13,-2.04 -0.77,-2.04 -0.25,0 -0.38,-0.01 -0.61,0.11 -0.14,0.08 -0.21,0.13 -0.31,0.24 -0.1,0.09 -0.17,0.18 -0.24,0.31 -0.05,0.1 -0.11,0.29 -0.11,0.42z"/>
   <path class="fil0" d="M3.18 14.37l-0.48 0 0 -0.88c0.37,0 1.03,-0.08 1.03,0.44 0,0.04 -0.03,0.16 -0.05,0.19 -0.07,0.18 -0.29,0.25 -0.5,0.25zm-0.92 -1.19l0 2.2 0.44 0 0 -0.65c0.66,0 0.53,-0.1 0.8,0.31 0.07,0.11 0.15,0.22 0.23,0.34l0.46 0c-0.02,-0.06 -0.08,-0.13 -0.12,-0.18l-0.26 -0.37c-0.04,-0.07 -0.09,-0.13 -0.13,-0.19 0.27,-0.14 0.49,-0.31 0.49,-0.71 0,-0.64 -0.58,-0.82 -1.16,-0.82l-0.69 0c-0.05,0 -0.06,0.02 -0.06,0.07z"/>
   <path class="fil0" d="M5.32 13.97c0.24,0 0.45,0.17 0.46,0.4l-0.94 0c0.02,-0.06 0.02,-0.09 0.05,-0.15l0.11 -0.13c0.07,-0.07 0.18,-0.12 0.32,-0.12zm-0.9 0.55c0,0.48 0.4,0.88 0.83,0.88 0.22,0 0.37,0.01 0.57,-0.09 0.19,-0.09 0.14,-0.11 0.25,-0.18 -0.05,-0.08 -0.15,-0.21 -0.23,-0.26 -0.07,0.05 -0.06,0.07 -0.16,0.12 -0.27,0.13 -0.81,0.04 -0.82,-0.33l1.32 0c0.11,-1.4 -1.76,-1.29 -1.76,-0.14z"/>
   <path class="fil0" d="M6.81 14.89l0 -0.08c0,-0.14 0.26,-0.17 0.41,-0.17l0.32 0 0 0.15c0,0.35 -0.73,0.42 -0.73,0.1zm-0.36 -1.02c0.01,0.05 0.11,0.23 0.15,0.29 0.22,-0.15 0.31,-0.17 0.58,-0.17 0.24,0 0.36,0.15 0.36,0.38 -0.49,0 -1.15,-0.09 -1.15,0.55 0,0.39 0.46,0.55 0.86,0.46 0.19,-0.04 0.19,-0.09 0.31,-0.17l0 0.17 0.4 0 0 -1.03c0,-1 -1.34,-0.73 -1.51,-0.48z"/>
   <path class="fil0" d="M9.15 15.4l0.21 0c0.24,0 0.61,-0.22 0.63,-0.42 -0.06,-0.02 -0.1,-0.05 -0.15,-0.08 -0.06,-0.04 -0.11,-0.06 -0.16,-0.09 -0.3,0.44 -0.93,0.2 -0.93,-0.21l0 -0.14c0,-0.55 0.81,-0.58 0.9,-0.24 0.1,0 0.21,-0.1 0.34,-0.16 -0.09,-0.4 -1,-0.68 -1.49,-0.07 -0.42,0.52 -0.04,1.41 0.65,1.41z"/>
   <path class="fil0" d="M10.41 13.66c-0.35,0 -0.29,-0.06 -0.29,0.29 0,0.09 0.08,0.07 0.29,0.07l0 0.9c0,0.25 0.23,0.48 0.48,0.48 0.26,0 0.28,0.01 0.5,-0.11 -0.02,-0.1 -0.08,-0.18 -0.1,-0.29 -0.01,0 -0.46,0.19 -0.46,-0.13l0 -0.85c0.55,0 0.46,0.07 0.46,-0.3 0,-0.1 -0.18,-0.06 -0.46,-0.06 0,-0.47 0.09,-0.38 -0.42,-0.38l0 0.38z"/>
  </g>
 </g>
</svg>
